<svg xmlns="http://www.w3.org/2000/svg" xmlns:xlink="http://www.w3.org/1999/xlink" width="500" zoomAndPan="magnify" viewBox="0 0 375 374.999991" height="500" preserveAspectRatio="xMidYMid meet" version="1.2"><g id="3bee710455"><path style=" stroke:none;fill-rule:evenodd;fill:#2c5273;fill-opacity:1;" d="M 204.84375 82.222656 C 202.867188 82.222656 200.894531 81.125 200.234375 79.148438 L 184.207031 37.875 C 183.109375 35.238281 184.425781 32.382812 187.0625 31.507812 C 189.476562 30.410156 192.332031 31.726562 193.429688 34.359375 L 209.457031 75.417969 C 210.554688 78.050781 209.234375 80.90625 206.601562 82.003906 C 205.941406 82.222656 205.503906 82.222656 204.84375 82.222656 Z M 204.84375 82.222656 "/><path style=" stroke:none;fill-rule:evenodd;fill:#2c5273;fill-opacity:1;" d="M 236.023438 82.222656 C 235.363281 82.222656 234.925781 82.222656 234.265625 82.003906 C 231.628906 80.90625 230.3125 78.050781 231.410156 75.417969 L 247.4375 34.359375 C 248.535156 31.726562 251.390625 30.410156 253.804688 31.507812 C 256.441406 32.382812 257.757812 35.238281 256.660156 37.875 L 240.632812 79.148438 C 239.972656 81.125 237.996094 82.222656 236.023438 82.222656 Z M 236.023438 82.222656 "/><path style=" stroke:none;fill-rule:evenodd;fill:#9aa1ab;fill-opacity:1;" d="M 251.609375 107.03125 L 189.257812 107.03125 C 186.621094 107.03125 184.207031 104.835938 184.207031 101.984375 L 184.207031 77.171875 C 184.207031 74.539062 186.621094 72.34375 189.257812 72.34375 L 251.609375 72.34375 C 254.246094 72.34375 256.660156 74.539062 256.660156 77.171875 L 256.660156 101.984375 C 256.660156 104.835938 254.246094 107.03125 251.609375 107.03125 Z M 251.609375 107.03125 "/><path style=" stroke:none;fill-rule:evenodd;fill:#9aa1ab;fill-opacity:1;" d="M 250.511719 213.296875 L 190.355469 213.296875 C 187.5 213.296875 185.304688 211.101562 185.304688 208.246094 L 185.304688 177.949219 C 185.304688 175.316406 187.5 173.117188 190.355469 173.117188 L 250.511719 173.117188 C 253.367188 173.117188 255.5625 175.316406 255.5625 177.949219 L 255.5625 208.246094 C 255.5625 211.101562 253.367188 213.296875 250.511719 213.296875 Z M 250.511719 213.296875 "/><path style=" stroke:none;fill-rule:evenodd;fill:#9aa1ab;fill-opacity:1;" d="M 268.515625 328.5625 L 172.351562 328.5625 C 169.496094 328.5625 167.300781 326.367188 167.300781 323.515625 L 167.300781 298.703125 C 167.300781 295.851562 169.496094 293.65625 172.351562 293.65625 L 268.515625 293.65625 C 271.371094 293.65625 273.566406 295.851562 273.566406 298.703125 L 273.566406 323.515625 C 273.566406 326.367188 271.371094 328.5625 268.515625 328.5625 Z M 268.515625 328.5625 "/><path style=" stroke:none;fill-rule:evenodd;fill:#2c5273;fill-opacity:1;" d="M 88.917969 322.855469 C 86.285156 322.855469 84.089844 320.660156 84.089844 317.804688 L 84.089844 253.476562 C 84.089844 250.839844 86.285156 248.644531 88.917969 248.644531 L 135.246094 248.644531 C 138.101562 248.644531 140.296875 250.839844 140.296875 253.476562 C 140.296875 256.332031 138.101562 258.527344 135.246094 258.527344 L 93.96875 258.527344 L 93.96875 317.804688 C 93.96875 320.660156 91.773438 322.855469 88.917969 322.855469 Z M 88.917969 322.855469 "/><path style=" stroke:none;fill-rule:evenodd;fill:#2c5273;fill-opacity:1;" d="M 351.726562 258.527344 L 305.621094 258.527344 C 302.765625 258.527344 300.570312 256.332031 300.570312 253.476562 C 300.570312 250.839844 302.765625 248.644531 305.621094 248.644531 L 346.898438 248.644531 L 346.898438 189.148438 C 346.898438 186.292969 349.09375 184.097656 351.726562 184.097656 C 354.582031 184.097656 356.777344 186.292969 356.777344 189.148438 L 356.777344 253.476562 C 356.777344 256.332031 354.582031 258.527344 351.726562 258.527344 Z M 351.726562 258.527344 "/><path style=" stroke:none;fill-rule:evenodd;fill:#d7dce0;fill-opacity:1;" d="M 271.589844 183 L 169.277344 183 C 159.835938 183 152.371094 175.316406 152.371094 166.09375 L 152.371094 113.839844 C 152.371094 104.617188 159.835938 96.933594 169.277344 96.933594 L 271.589844 96.933594 C 281.03125 96.933594 288.496094 104.617188 288.496094 113.839844 L 288.496094 166.09375 C 288.496094 175.316406 281.03125 183 271.589844 183 Z M 271.589844 183 "/><path style=" stroke:none;fill-rule:evenodd;fill:#2c5273;fill-opacity:1;" d="M 271.589844 175.753906 C 276.859375 175.753906 281.25 171.363281 281.25 166.09375 L 281.25 113.839844 C 281.25 108.570312 276.859375 104.398438 271.589844 104.398438 L 169.277344 104.398438 C 164.007812 104.398438 159.617188 108.570312 159.617188 113.839844 L 159.617188 166.09375 C 159.617188 171.363281 164.007812 175.753906 169.277344 175.753906 Z M 271.589844 175.753906 "/><path style=" stroke:none;fill-rule:evenodd;fill:#d7dce0;fill-opacity:1;" d="M 305.621094 303.753906 L 135.246094 303.753906 C 132.609375 303.753906 130.195312 301.558594 130.195312 298.703125 L 130.195312 208.246094 C 130.195312 205.613281 132.609375 203.417969 135.246094 203.417969 L 305.621094 203.417969 C 308.253906 203.417969 310.671875 205.613281 310.671875 208.246094 L 310.671875 298.703125 C 310.671875 301.558594 308.253906 303.753906 305.621094 303.753906 Z M 305.621094 303.753906 "/><path style=" stroke:none;fill-rule:evenodd;fill:#9aa1ab;fill-opacity:1;" d="M 280.152344 243.816406 L 160.714844 243.816406 C 158.078125 243.816406 155.882812 241.621094 155.882812 238.765625 C 155.882812 235.910156 158.078125 233.714844 160.714844 233.714844 L 280.152344 233.714844 C 282.785156 233.714844 284.980469 235.910156 284.980469 238.765625 C 284.980469 241.621094 282.785156 243.816406 280.152344 243.816406 Z M 280.152344 243.816406 "/><path style=" stroke:none;fill-rule:evenodd;fill:#9aa1ab;fill-opacity:1;" d="M 280.152344 273.234375 L 160.714844 273.234375 C 158.078125 273.234375 155.882812 271.039062 155.882812 268.1875 C 155.882812 265.550781 158.078125 263.355469 160.714844 263.355469 L 280.152344 263.355469 C 282.785156 263.355469 284.980469 265.550781 284.980469 268.1875 C 284.980469 271.039062 282.785156 273.234375 280.152344 273.234375 Z M 280.152344 273.234375 "/><path style=" stroke:none;fill-rule:evenodd;fill:#d7dce0;fill-opacity:1;" d="M 269.832031 368.742188 L 171.035156 368.742188 C 138.320312 368.742188 117.242188 350.957031 117.242188 323.515625 C 117.242188 320.660156 119.65625 318.464844 122.292969 318.464844 L 318.574219 318.464844 C 321.210938 318.464844 323.625 320.660156 323.625 323.515625 C 323.625 350.957031 302.546875 368.742188 269.832031 368.742188 Z M 269.832031 368.742188 "/><path style=" stroke:none;fill-rule:evenodd;fill:#2c5273;fill-opacity:1;" d="M 106.484375 349.421875 C 104.949219 349.421875 103.410156 348.761719 102.3125 347.226562 L 88.917969 327.027344 L 75.746094 347.226562 C 74.210938 349.640625 71.136719 350.300781 68.722656 348.761719 C 66.523438 347.226562 65.867188 344.152344 67.402344 341.738281 L 84.96875 315.171875 C 85.847656 313.855469 87.382812 312.976562 88.917969 312.976562 C 90.675781 312.976562 92.214844 313.855469 93.089844 315.171875 L 110.65625 341.738281 C 112.191406 344.152344 111.535156 347.226562 109.339844 348.761719 C 108.460938 349.203125 107.582031 349.421875 106.484375 349.421875 Z M 106.484375 349.421875 "/><path style=" stroke:none;fill-rule:evenodd;fill:#2c5273;fill-opacity:1;" d="M 351.726562 194.195312 C 350.191406 194.195312 348.652344 193.316406 347.773438 192 L 330.210938 165.214844 C 328.675781 163.019531 329.332031 159.945312 331.527344 158.410156 C 333.941406 156.871094 337.015625 157.53125 338.554688 159.726562 L 351.726562 180.144531 L 365.121094 159.726562 C 366.65625 157.53125 369.730469 156.871094 372.144531 158.410156 C 374.339844 159.945312 375 163.019531 373.464844 165.214844 L 355.898438 192 C 355.019531 193.316406 353.484375 194.195312 351.726562 194.195312 Z M 351.726562 194.195312 "/><path style=" stroke:none;fill-rule:evenodd;fill:#5dc3ea;fill-opacity:1;" d="M 247 157.96875 C 236.898438 157.96875 228.777344 149.847656 228.777344 139.964844 C 228.777344 130.085938 236.898438 121.960938 247 121.960938 C 256.878906 121.960938 265.003906 130.085938 265.003906 139.964844 C 265.003906 149.847656 256.878906 157.96875 247 157.96875 Z M 247 157.96875 "/><path style=" stroke:none;fill-rule:evenodd;fill:#5dc3ea;fill-opacity:1;" d="M 193.867188 157.96875 C 183.988281 157.96875 175.863281 149.847656 175.863281 139.964844 C 175.863281 130.085938 183.988281 121.960938 193.867188 121.960938 C 203.964844 121.960938 212.089844 130.085938 212.089844 139.964844 C 212.089844 149.847656 203.964844 157.96875 193.867188 157.96875 Z M 193.867188 157.96875 "/><path style=" stroke:none;fill-rule:evenodd;fill:#54738e;fill-opacity:1;" d="M 183.109375 42.265625 C 173.230469 42.265625 165.105469 34.140625 165.105469 24.261719 C 165.105469 14.378906 173.230469 6.257812 183.109375 6.257812 C 193.207031 6.257812 201.332031 14.378906 201.332031 24.261719 C 201.332031 34.140625 193.207031 42.265625 183.109375 42.265625 Z M 183.109375 42.265625 "/><path style=" stroke:none;fill-rule:evenodd;fill:#54738e;fill-opacity:1;" d="M 257.757812 42.265625 C 247.65625 42.265625 239.535156 34.140625 239.535156 24.261719 C 239.535156 14.378906 247.65625 6.257812 257.757812 6.257812 C 267.636719 6.257812 275.761719 14.378906 275.761719 24.261719 C 275.761719 34.140625 267.636719 42.265625 257.757812 42.265625 Z M 257.757812 42.265625 "/><path style=" stroke:none;fill-rule:evenodd;fill:#00bea5;fill-opacity:1;" d="M 135.683594 178.828125 C 135.246094 178.828125 134.808594 178.609375 134.367188 178.609375 L 96.824219 167.628906 C 87.820312 171.582031 78.601562 173.339844 68.722656 173.339844 C 23.492188 173.339844 0 138.429688 0 103.738281 C 0 69.050781 23.492188 33.921875 68.722656 33.921875 C 95.945312 33.921875 120.097656 49.289062 131.734375 73.878906 C 142.710938 97.8125 140.074219 124.816406 124.488281 145.457031 L 139.636719 170.703125 C 140.296875 171.363281 140.734375 172.460938 140.734375 173.777344 C 140.734375 176.414062 138.539062 178.828125 135.683594 178.828125 Z M 135.683594 178.828125 "/><path style=" stroke:none;fill-rule:evenodd;fill:#ffffff;fill-opacity:1;" d="M 100.335938 83.101562 L 37.984375 83.101562 C 35.128906 83.101562 32.933594 80.90625 32.933594 78.050781 C 32.933594 75.417969 35.128906 73.003906 37.984375 73.003906 L 100.335938 73.003906 C 103.191406 73.003906 105.386719 75.417969 105.386719 78.050781 C 105.386719 80.90625 103.191406 83.101562 100.335938 83.101562 Z M 100.335938 83.101562 "/><path style=" stroke:none;fill-rule:evenodd;fill:#ffffff;fill-opacity:1;" d="M 100.335938 108.570312 L 37.984375 108.570312 C 35.128906 108.570312 32.933594 106.375 32.933594 103.738281 C 32.933594 100.886719 35.128906 98.691406 37.984375 98.691406 L 100.335938 98.691406 C 103.191406 98.691406 105.386719 100.886719 105.386719 103.738281 C 105.386719 106.375 103.191406 108.570312 100.335938 108.570312 Z M 100.335938 108.570312 "/><path style=" stroke:none;fill-rule:evenodd;fill:#ffffff;fill-opacity:1;" d="M 100.335938 134.257812 L 37.984375 134.257812 C 35.128906 134.257812 32.933594 132.0625 32.933594 129.207031 C 32.933594 126.574219 35.128906 124.378906 37.984375 124.378906 L 100.335938 124.378906 C 103.191406 124.378906 105.386719 126.574219 105.386719 129.207031 C 105.386719 132.0625 103.191406 134.257812 100.335938 134.257812 Z M 100.335938 134.257812 "/><path style=" stroke:none;fill-rule:evenodd;fill:#ffffff;fill-opacity:1;" d="M 247 150.066406 C 241.289062 150.066406 236.898438 145.457031 236.898438 139.964844 C 236.898438 134.476562 241.289062 129.867188 247 129.867188 C 252.488281 129.867188 256.878906 134.476562 256.878906 139.964844 C 256.878906 145.457031 252.488281 150.066406 247 150.066406 Z M 247 150.066406 "/><path style=" stroke:none;fill-rule:evenodd;fill:#ffffff;fill-opacity:1;" d="M 193.867188 150.066406 C 188.378906 150.066406 183.988281 145.457031 183.988281 139.964844 C 183.988281 134.476562 188.378906 129.867188 193.867188 129.867188 C 199.574219 129.867188 203.964844 134.476562 203.964844 139.964844 C 203.964844 145.457031 199.574219 150.066406 193.867188 150.066406 Z M 193.867188 150.066406 "/></g></svg>