<svg xmlns="http://www.w3.org/2000/svg" xmlns:xlink="http://www.w3.org/1999/xlink" width="500" zoomAndPan="magnify" viewBox="0 0 375 374.999991" height="500" preserveAspectRatio="xMidYMid meet" version="1.2"><defs><clipPath id="32aaad0b5e"><path d="M 20.859375 0 L 353.859375 0 L 353.859375 375 L 20.859375 375 Z M 20.859375 0 "/></clipPath></defs><g id="5c84706256"><g clip-rule="nonzero" clip-path="url(#32aaad0b5e)"><path style=" stroke:none;fill-rule:nonzero;fill:#020203;fill-opacity:1;" d="M 246.558594 206.140625 L 192.609375 206.140625 L 192.609375 152.148438 L 246.558594 152.148438 Z M 312.894531 218.542969 L 258.949219 218.542969 L 258.949219 272.535156 L 312.894531 272.535156 Z M 99.675781 83.9375 L 104.132812 83.9375 C 111.160156 83.9375 116.902344 78.265625 116.902344 71.160156 L 116.902344 12.78125 C 116.902344 5.746094 111.238281 0 104.132812 0 L 99.675781 0 C 92.648438 0 86.90625 5.746094 86.90625 12.78125 L 86.90625 71.234375 C 86.90625 78.265625 92.648438 83.9375 99.675781 83.9375 Z M 312.894531 283.800781 L 258.949219 283.800781 L 258.949219 337.792969 L 312.894531 337.792969 Z M 270.433594 83.9375 L 274.890625 83.9375 C 281.917969 83.9375 287.660156 78.265625 287.660156 71.160156 L 287.660156 12.78125 C 287.660156 5.746094 281.992188 0 274.890625 0 L 270.433594 0 C 263.40625 0 257.664062 5.746094 257.664062 12.78125 L 257.664062 71.234375 C 257.738281 78.265625 263.40625 83.9375 270.433594 83.9375 Z M 156.644531 83.9375 L 161.105469 83.9375 C 168.128906 83.9375 173.871094 78.265625 173.871094 71.160156 L 173.871094 12.78125 C 173.871094 5.746094 168.207031 0 161.105469 0 L 156.644531 0 C 149.617188 0 143.875 5.746094 143.875 12.78125 L 143.875 71.234375 C 143.875 78.265625 149.542969 83.9375 156.644531 83.9375 Z M 213.539062 83.9375 L 217.996094 83.9375 C 225.023438 83.9375 230.765625 78.265625 230.765625 71.160156 L 230.765625 12.78125 C 230.765625 5.746094 225.101562 0 217.996094 0 L 213.539062 0 C 206.511719 0 200.769531 5.746094 200.769531 12.78125 L 200.769531 71.234375 C 200.769531 78.265625 206.511719 83.9375 213.539062 83.9375 Z M 312.894531 152.222656 L 258.949219 152.222656 L 258.949219 206.214844 L 312.894531 206.214844 Z M 113.957031 218.542969 L 60.085938 218.542969 L 60.085938 272.535156 L 114.03125 272.535156 L 114.03125 218.542969 Z M 113.957031 284.859375 L 60.085938 284.859375 L 60.085938 338.855469 L 114.03125 338.855469 L 114.03125 284.859375 Z M 353.847656 74.410156 L 353.847656 342.40625 C 353.847656 360.40625 339.191406 375 321.28125 375 L 53.4375 375 C 35.453125 375 20.871094 360.40625 20.871094 342.40625 L 20.871094 74.410156 C 20.871094 56.414062 35.453125 41.816406 53.4375 41.816406 L 81.695312 41.816406 L 81.695312 75.695312 C 81.695312 84.164062 90.761719 90.972656 99.222656 90.972656 L 104.585938 90.972656 C 113.050781 90.972656 122.117188 84.089844 122.117188 75.695312 L 122.117188 41.816406 L 138.511719 41.816406 L 138.511719 75.695312 C 138.511719 84.164062 147.578125 90.972656 156.042969 90.972656 L 161.40625 90.972656 C 169.867188 90.972656 178.933594 84.089844 178.933594 75.695312 L 178.933594 41.816406 L 195.332031 41.816406 L 195.332031 75.695312 C 195.332031 84.164062 204.398438 90.972656 212.859375 90.972656 L 218.222656 90.972656 C 226.6875 90.972656 235.753906 84.089844 235.753906 75.695312 L 235.753906 41.816406 L 252.148438 41.816406 L 252.148438 75.695312 C 252.148438 84.164062 261.214844 90.972656 269.679688 90.972656 L 275.042969 90.972656 C 283.503906 90.972656 292.570312 84.089844 292.570312 75.695312 L 292.570312 41.816406 L 321.132812 41.816406 C 339.191406 41.816406 353.847656 56.414062 353.847656 74.410156 Z M 338.054688 134.832031 L 36.585938 134.832031 L 36.585938 342.484375 C 36.585938 351.785156 44.140625 359.347656 53.4375 359.347656 L 321.207031 359.347656 C 330.5 359.347656 338.054688 351.785156 338.054688 342.484375 Z M 180.292969 284.859375 L 126.347656 284.859375 L 126.347656 338.855469 L 180.292969 338.855469 Z M 246.558594 218.542969 L 192.609375 218.542969 L 192.609375 272.535156 L 246.558594 272.535156 Z M 246.558594 283.800781 L 192.609375 283.800781 L 192.609375 337.792969 L 246.558594 337.792969 Z M 180.292969 152.222656 L 126.347656 152.222656 L 126.347656 206.214844 L 180.292969 206.214844 Z M 180.292969 218.542969 L 126.347656 218.542969 L 126.347656 272.535156 L 180.292969 272.535156 Z M 180.292969 218.542969 "/></g></g></svg>