<svg xmlns="http://www.w3.org/2000/svg" xmlns:xlink="http://www.w3.org/1999/xlink" width="500" zoomAndPan="magnify" viewBox="0 0 375 374.999991" height="500" preserveAspectRatio="xMidYMid meet" version="1.2"><g id="33cbfefdd4"><path style=" stroke:none;fill-rule:nonzero;fill:#000000;fill-opacity:1;" d="M 375 18.75 L 375 131.25 C 375 131.863281 374.96875 132.476562 374.910156 133.085938 C 374.847656 133.699219 374.757812 134.304688 374.640625 134.90625 C 374.519531 135.511719 374.371094 136.105469 374.191406 136.691406 C 374.015625 137.28125 373.808594 137.859375 373.574219 138.425781 C 373.335938 138.992188 373.074219 139.546875 372.785156 140.089844 C 372.496094 140.628906 372.179688 141.15625 371.839844 141.667969 C 371.5 142.175781 371.132812 142.671875 370.742188 143.144531 C 370.355469 143.621094 369.941406 144.074219 369.507812 144.507812 C 369.074219 144.941406 368.621094 145.355469 368.144531 145.742188 C 367.671875 146.132812 367.175781 146.5 366.667969 146.839844 C 366.15625 147.179688 365.628906 147.496094 365.089844 147.785156 C 364.546875 148.074219 363.992188 148.335938 363.425781 148.574219 C 362.859375 148.808594 362.28125 149.015625 361.691406 149.191406 C 361.105469 149.371094 360.511719 149.519531 359.90625 149.640625 C 359.304688 149.757812 358.699219 149.847656 358.085938 149.910156 C 357.476562 149.96875 356.863281 150 356.25 150 L 225 150 C 224.386719 150 223.773438 149.96875 223.164062 149.910156 C 222.550781 149.847656 221.945312 149.757812 221.34375 149.640625 C 220.738281 149.519531 220.144531 149.371094 219.558594 149.191406 C 218.96875 149.015625 218.390625 148.808594 217.824219 148.574219 C 217.257812 148.335938 216.703125 148.074219 216.160156 147.785156 C 215.621094 147.496094 215.09375 147.179688 214.582031 146.839844 C 214.074219 146.5 213.578125 146.132812 213.105469 145.742188 C 212.628906 145.355469 212.175781 144.941406 211.742188 144.507812 C 211.308594 144.074219 210.894531 143.621094 210.507812 143.144531 C 210.117188 142.671875 209.75 142.175781 209.410156 141.667969 C 209.070312 141.15625 208.753906 140.628906 208.464844 140.089844 C 208.175781 139.546875 207.914062 138.992188 207.675781 138.425781 C 207.441406 137.859375 207.234375 137.28125 207.058594 136.691406 C 206.878906 136.105469 206.730469 135.511719 206.609375 134.90625 C 206.492188 134.304688 206.402344 133.699219 206.339844 133.085938 C 206.28125 132.476562 206.25 131.863281 206.25 131.25 L 206.25 18.75 C 206.25 18.136719 206.28125 17.523438 206.339844 16.914062 C 206.402344 16.300781 206.492188 15.695312 206.609375 15.09375 C 206.730469 14.488281 206.878906 13.894531 207.058594 13.308594 C 207.234375 12.71875 207.441406 12.140625 207.675781 11.574219 C 207.914062 11.007812 208.175781 10.453125 208.464844 9.910156 C 208.753906 9.371094 209.070312 8.84375 209.410156 8.332031 C 209.75 7.824219 210.117188 7.328125 210.507812 6.855469 C 210.894531 6.378906 211.308594 5.925781 211.742188 5.492188 C 212.175781 5.058594 212.628906 4.644531 213.105469 4.257812 C 213.578125 3.867188 214.074219 3.5 214.582031 3.160156 C 215.09375 2.820312 215.621094 2.503906 216.160156 2.214844 C 216.703125 1.925781 217.257812 1.664062 217.824219 1.425781 C 218.390625 1.191406 218.96875 0.984375 219.558594 0.808594 C 220.144531 0.628906 220.738281 0.480469 221.34375 0.359375 C 221.945312 0.242188 222.550781 0.152344 223.164062 0.0898438 C 223.773438 0.03125 224.386719 0 225 0 L 356.25 0 C 356.863281 0 357.476562 0.03125 358.085938 0.0898438 C 358.699219 0.152344 359.304688 0.242188 359.90625 0.359375 C 360.511719 0.480469 361.105469 0.628906 361.691406 0.808594 C 362.28125 0.984375 362.859375 1.191406 363.425781 1.425781 C 363.992188 1.664062 364.546875 1.925781 365.089844 2.214844 C 365.628906 2.503906 366.15625 2.820312 366.667969 3.160156 C 367.175781 3.5 367.671875 3.867188 368.144531 4.257812 C 368.621094 4.644531 369.074219 5.058594 369.507812 5.492188 C 369.941406 5.925781 370.355469 6.378906 370.742188 6.855469 C 371.132812 7.328125 371.5 7.824219 371.839844 8.332031 C 372.179688 8.84375 372.496094 9.371094 372.785156 9.910156 C 373.074219 10.453125 373.335938 11.007812 373.574219 11.574219 C 373.808594 12.140625 374.015625 12.71875 374.191406 13.308594 C 374.371094 13.894531 374.519531 14.488281 374.640625 15.09375 C 374.757812 15.695312 374.847656 16.300781 374.910156 16.914062 C 374.96875 17.523438 375 18.136719 375 18.75 Z M 150 225 L 18.75 225 C 18.136719 225 17.523438 225.03125 16.914062 225.089844 C 16.300781 225.152344 15.695312 225.242188 15.09375 225.359375 C 14.488281 225.480469 13.894531 225.628906 13.308594 225.808594 C 12.71875 225.984375 12.140625 226.191406 11.574219 226.425781 C 11.007812 226.664062 10.453125 226.925781 9.910156 227.214844 C 9.371094 227.503906 8.84375 227.820312 8.332031 228.160156 C 7.824219 228.5 7.328125 228.867188 6.855469 229.257812 C 6.378906 229.644531 5.925781 230.058594 5.492188 230.492188 C 5.058594 230.925781 4.644531 231.378906 4.257812 231.855469 C 3.867188 232.328125 3.5 232.824219 3.160156 233.332031 C 2.820312 233.84375 2.503906 234.371094 2.214844 234.910156 C 1.925781 235.453125 1.664062 236.007812 1.425781 236.574219 C 1.191406 237.140625 0.984375 237.71875 0.808594 238.308594 C 0.628906 238.894531 0.480469 239.488281 0.359375 240.09375 C 0.242188 240.695312 0.152344 241.300781 0.0898438 241.914062 C 0.03125 242.523438 0 243.136719 0 243.75 L 0 356.25 C 0 356.863281 0.03125 357.476562 0.0898438 358.085938 C 0.152344 358.699219 0.242188 359.304688 0.359375 359.90625 C 0.480469 360.511719 0.628906 361.105469 0.808594 361.691406 C 0.984375 362.28125 1.191406 362.859375 1.425781 363.425781 C 1.664062 363.992188 1.925781 364.546875 2.214844 365.089844 C 2.503906 365.628906 2.820312 366.15625 3.160156 366.667969 C 3.5 367.175781 3.867188 367.671875 4.257812 368.144531 C 4.644531 368.621094 5.058594 369.074219 5.492188 369.507812 C 5.925781 369.941406 6.378906 370.355469 6.855469 370.742188 C 7.328125 371.132812 7.824219 371.5 8.332031 371.839844 C 8.84375 372.179688 9.371094 372.496094 9.910156 372.785156 C 10.453125 373.074219 11.007812 373.335938 11.574219 373.574219 C 12.140625 373.808594 12.71875 374.015625 13.308594 374.191406 C 13.894531 374.371094 14.488281 374.519531 15.09375 374.640625 C 15.695312 374.757812 16.300781 374.847656 16.914062 374.910156 C 17.523438 374.96875 18.136719 375 18.75 375 L 150 375 C 150.613281 375 151.226562 374.96875 151.835938 374.910156 C 152.449219 374.847656 153.054688 374.757812 153.65625 374.640625 C 154.261719 374.519531 154.855469 374.371094 155.441406 374.191406 C 156.03125 374.015625 156.609375 373.808594 157.175781 373.574219 C 157.742188 373.335938 158.296875 373.074219 158.839844 372.785156 C 159.378906 372.496094 159.90625 372.179688 160.417969 371.839844 C 160.925781 371.5 161.421875 371.132812 161.894531 370.742188 C 162.371094 370.355469 162.824219 369.941406 163.257812 369.507812 C 163.691406 369.074219 164.105469 368.621094 164.492188 368.144531 C 164.882812 367.671875 165.25 367.175781 165.589844 366.667969 C 165.929688 366.15625 166.246094 365.628906 166.535156 365.089844 C 166.824219 364.546875 167.085938 363.992188 167.324219 363.425781 C 167.558594 362.859375 167.765625 362.28125 167.941406 361.691406 C 168.121094 361.105469 168.269531 360.511719 168.390625 359.90625 C 168.507812 359.304688 168.597656 358.699219 168.660156 358.085938 C 168.71875 357.476562 168.75 356.863281 168.75 356.25 L 168.75 243.75 C 168.75 243.136719 168.71875 242.523438 168.660156 241.914062 C 168.597656 241.300781 168.507812 240.695312 168.390625 240.09375 C 168.269531 239.488281 168.121094 238.894531 167.941406 238.308594 C 167.765625 237.71875 167.558594 237.140625 167.324219 236.574219 C 167.085938 236.007812 166.824219 235.453125 166.535156 234.910156 C 166.246094 234.371094 165.929688 233.84375 165.589844 233.332031 C 165.25 232.824219 164.882812 232.328125 164.492188 231.855469 C 164.105469 231.378906 163.691406 230.925781 163.257812 230.492188 C 162.824219 230.058594 162.371094 229.644531 161.894531 229.257812 C 161.421875 228.867188 160.925781 228.5 160.417969 228.160156 C 159.90625 227.820312 159.378906 227.503906 158.839844 227.214844 C 158.296875 226.925781 157.742188 226.664062 157.175781 226.425781 C 156.609375 226.191406 156.03125 225.984375 155.441406 225.808594 C 154.855469 225.628906 154.261719 225.480469 153.65625 225.359375 C 153.054688 225.242188 152.449219 225.152344 151.835938 225.089844 C 151.226562 225.03125 150.613281 225 150 225 Z M 150 0 L 18.75 0 C 18.136719 0 17.523438 0.03125 16.914062 0.0898438 C 16.300781 0.152344 15.695312 0.242188 15.09375 0.359375 C 14.488281 0.480469 13.894531 0.628906 13.308594 0.808594 C 12.71875 0.984375 12.140625 1.191406 11.574219 1.425781 C 11.007812 1.664062 10.453125 1.925781 9.910156 2.214844 C 9.371094 2.503906 8.84375 2.820312 8.332031 3.160156 C 7.824219 3.5 7.328125 3.867188 6.855469 4.257812 C 6.378906 4.644531 5.925781 5.058594 5.492188 5.492188 C 5.058594 5.925781 4.644531 6.378906 4.257812 6.855469 C 3.867188 7.328125 3.5 7.824219 3.160156 8.332031 C 2.820312 8.84375 2.503906 9.371094 2.214844 9.910156 C 1.925781 10.453125 1.664062 11.007812 1.425781 11.574219 C 1.191406 12.140625 0.984375 12.71875 0.808594 13.308594 C 0.628906 13.894531 0.480469 14.488281 0.359375 15.09375 C 0.242188 15.695312 0.152344 16.300781 0.0898438 16.914062 C 0.03125 17.523438 0 18.136719 0 18.75 L 0 168.75 C 0 169.363281 0.03125 169.976562 0.0898438 170.585938 C 0.152344 171.199219 0.242188 171.804688 0.359375 172.40625 C 0.480469 173.011719 0.628906 173.605469 0.808594 174.191406 C 0.984375 174.78125 1.191406 175.359375 1.425781 175.925781 C 1.664062 176.492188 1.925781 177.046875 2.214844 177.589844 C 2.503906 178.128906 2.820312 178.65625 3.160156 179.167969 C 3.5 179.675781 3.867188 180.171875 4.257812 180.644531 C 4.644531 181.121094 5.058594 181.574219 5.492188 182.007812 C 5.925781 182.441406 6.378906 182.855469 6.855469 183.242188 C 7.328125 183.632812 7.824219 184 8.332031 184.339844 C 8.84375 184.679688 9.371094 184.996094 9.910156 185.285156 C 10.453125 185.574219 11.007812 185.835938 11.574219 186.074219 C 12.140625 186.308594 12.71875 186.515625 13.308594 186.691406 C 13.894531 186.871094 14.488281 187.019531 15.09375 187.140625 C 15.695312 187.257812 16.300781 187.347656 16.914062 187.410156 C 17.523438 187.46875 18.136719 187.5 18.75 187.5 L 150 187.5 C 150.613281 187.5 151.226562 187.46875 151.835938 187.410156 C 152.449219 187.347656 153.054688 187.257812 153.65625 187.140625 C 154.261719 187.019531 154.855469 186.871094 155.441406 186.691406 C 156.03125 186.515625 156.609375 186.308594 157.175781 186.074219 C 157.742188 185.835938 158.296875 185.574219 158.839844 185.285156 C 159.378906 184.996094 159.90625 184.679688 160.417969 184.339844 C 160.925781 184 161.421875 183.632812 161.894531 183.242188 C 162.371094 182.855469 162.824219 182.441406 163.257812 182.007812 C 163.691406 181.574219 164.105469 181.121094 164.492188 180.644531 C 164.882812 180.171875 165.25 179.675781 165.589844 179.167969 C 165.929688 178.65625 166.246094 178.128906 166.535156 177.589844 C 166.824219 177.046875 167.085938 176.492188 167.324219 175.925781 C 167.558594 175.359375 167.765625 174.78125 167.941406 174.191406 C 168.121094 173.605469 168.269531 173.011719 168.390625 172.40625 C 168.507812 171.804688 168.597656 171.199219 168.660156 170.585938 C 168.71875 169.976562 168.75 169.363281 168.75 168.75 L 168.75 18.75 C 168.75 18.136719 168.71875 17.523438 168.660156 16.914062 C 168.597656 16.300781 168.507812 15.695312 168.390625 15.09375 C 168.269531 14.488281 168.121094 13.894531 167.941406 13.308594 C 167.765625 12.71875 167.558594 12.140625 167.324219 11.574219 C 167.085938 11.007812 166.824219 10.453125 166.535156 9.910156 C 166.246094 9.371094 165.929688 8.84375 165.589844 8.332031 C 165.25 7.824219 164.882812 7.328125 164.492188 6.855469 C 164.105469 6.378906 163.691406 5.925781 163.257812 5.492188 C 162.824219 5.058594 162.371094 4.644531 161.894531 4.257812 C 161.421875 3.867188 160.925781 3.5 160.417969 3.160156 C 159.90625 2.820312 159.378906 2.503906 158.839844 2.214844 C 158.296875 1.925781 157.742188 1.664062 157.175781 1.425781 C 156.609375 1.191406 156.03125 0.984375 155.441406 0.808594 C 154.855469 0.628906 154.261719 0.480469 153.65625 0.359375 C 153.054688 0.242188 152.449219 0.152344 151.835938 0.0898438 C 151.226562 0.03125 150.613281 0 150 0 Z M 356.25 187.5 L 225 187.5 C 224.386719 187.5 223.773438 187.53125 223.164062 187.589844 C 222.550781 187.652344 221.945312 187.742188 221.34375 187.859375 C 220.738281 187.980469 220.144531 188.128906 219.558594 188.308594 C 218.96875 188.484375 218.390625 188.691406 217.824219 188.925781 C 217.257812 189.164062 216.703125 189.425781 216.160156 189.714844 C 215.621094 190.003906 215.09375 190.320312 214.582031 190.660156 C 214.074219 191 213.578125 191.367188 213.105469 191.757812 C 212.628906 192.144531 212.175781 192.558594 211.742188 192.992188 C 211.308594 193.425781 210.894531 193.878906 210.507812 194.355469 C 210.117188 194.828125 209.75 195.324219 209.410156 195.832031 C 209.070312 196.34375 208.753906 196.871094 208.464844 197.410156 C 208.175781 197.953125 207.914062 198.507812 207.675781 199.074219 C 207.441406 199.640625 207.234375 200.21875 207.058594 200.808594 C 206.878906 201.394531 206.730469 201.988281 206.609375 202.59375 C 206.492188 203.195312 206.402344 203.800781 206.339844 204.414062 C 206.28125 205.023438 206.25 205.636719 206.25 206.25 L 206.25 356.25 C 206.25 356.863281 206.28125 357.476562 206.339844 358.085938 C 206.402344 358.699219 206.492188 359.304688 206.609375 359.90625 C 206.730469 360.511719 206.878906 361.105469 207.058594 361.691406 C 207.234375 362.28125 207.441406 362.859375 207.675781 363.425781 C 207.914062 363.992188 208.175781 364.546875 208.464844 365.089844 C 208.753906 365.628906 209.070312 366.15625 209.410156 366.667969 C 209.75 367.175781 210.117188 367.671875 210.507812 368.144531 C 210.894531 368.621094 211.308594 369.074219 211.742188 369.507812 C 212.175781 369.941406 212.628906 370.355469 213.105469 370.742188 C 213.578125 371.132812 214.074219 371.5 214.582031 371.839844 C 215.09375 372.179688 215.621094 372.496094 216.160156 372.785156 C 216.703125 373.074219 217.257812 373.335938 217.824219 373.574219 C 218.390625 373.808594 218.96875 374.015625 219.558594 374.191406 C 220.144531 374.371094 220.738281 374.519531 221.34375 374.640625 C 221.945312 374.757812 222.550781 374.847656 223.164062 374.910156 C 223.773438 374.96875 224.386719 375 225 375 L 356.25 375 C 356.863281 375 357.476562 374.96875 358.085938 374.910156 C 358.699219 374.847656 359.304688 374.757812 359.90625 374.640625 C 360.511719 374.519531 361.105469 374.371094 361.691406 374.191406 C 362.28125 374.015625 362.859375 373.808594 363.425781 373.574219 C 363.992188 373.335938 364.546875 373.074219 365.089844 372.785156 C 365.628906 372.496094 366.15625 372.179688 366.667969 371.839844 C 367.175781 371.5 367.671875 371.132812 368.144531 370.742188 C 368.621094 370.355469 369.074219 369.941406 369.507812 369.507812 C 369.941406 369.074219 370.355469 368.621094 370.742188 368.144531 C 371.132812 367.671875 371.5 367.175781 371.839844 366.667969 C 372.179688 366.15625 372.496094 365.628906 372.785156 365.089844 C 373.074219 364.546875 373.335938 363.992188 373.574219 363.425781 C 373.808594 362.859375 374.015625 362.28125 374.191406 361.691406 C 374.371094 361.105469 374.519531 360.511719 374.640625 359.90625 C 374.757812 359.304688 374.847656 358.699219 374.910156 358.085938 C 374.96875 357.476562 375 356.863281 375 356.25 L 375 206.25 C 375 205.636719 374.96875 205.023438 374.910156 204.414062 C 374.847656 203.800781 374.757812 203.195312 374.640625 202.59375 C 374.519531 201.988281 374.371094 201.394531 374.191406 200.808594 C 374.015625 200.21875 373.808594 199.640625 373.574219 199.074219 C 373.335938 198.507812 373.074219 197.953125 372.785156 197.410156 C 372.496094 196.871094 372.179688 196.34375 371.839844 195.832031 C 371.5 195.324219 371.132812 194.828125 370.742188 194.355469 C 370.355469 193.878906 369.941406 193.425781 369.507812 192.992188 C 369.074219 192.558594 368.621094 192.144531 368.144531 191.757812 C 367.671875 191.367188 367.175781 191 366.667969 190.660156 C 366.15625 190.320312 365.628906 190.003906 365.089844 189.714844 C 364.546875 189.425781 363.992188 189.164062 363.425781 188.925781 C 362.859375 188.691406 362.28125 188.484375 361.691406 188.308594 C 361.105469 188.128906 360.511719 187.980469 359.90625 187.859375 C 359.304688 187.742188 358.699219 187.652344 358.085938 187.589844 C 357.476562 187.53125 356.863281 187.5 356.25 187.5 Z M 356.25 187.5 "/></g></svg>