<svg xmlns="http://www.w3.org/2000/svg" xmlns:xlink="http://www.w3.org/1999/xlink" width="500" zoomAndPan="magnify" viewBox="0 0 375 374.999991" height="500" preserveAspectRatio="xMidYMid meet" version="1.2"><g id="d04e52db21"><path style=" stroke:none;fill-rule:nonzero;fill:#000000;fill-opacity:1;" d="M 272.96875 20.84375 L 272.96875 149.894531 C 277.34375 151.0625 281.617188 152.519531 285.792969 154.265625 L 285.792969 1.273438 L 35.972656 1.273438 L 35.972656 14.171875 L 266.296875 14.171875 C 266.734375 14.171875 267.167969 14.214844 267.597656 14.300781 C 268.027344 14.386719 268.445312 14.511719 268.851562 14.679688 C 269.253906 14.847656 269.640625 15.054688 270.003906 15.296875 C 270.367188 15.539062 270.707031 15.816406 271.015625 16.125 C 271.324219 16.4375 271.601562 16.773438 271.84375 17.136719 C 272.089844 17.503906 272.292969 17.886719 272.460938 18.292969 C 272.628906 18.695312 272.753906 19.113281 272.839844 19.542969 C 272.925781 19.972656 272.96875 20.40625 272.96875 20.84375 Z M 272.96875 20.84375 "/><path style=" stroke:none;fill-rule:nonzero;fill:#000000;fill-opacity:1;" d="M 184.550781 185.285156 C 183.367188 186.46875 182.21875 187.683594 181.105469 188.933594 C 179.988281 190.183594 178.914062 191.464844 177.871094 192.773438 C 176.832031 194.085938 175.828125 195.425781 174.863281 196.792969 C 173.898438 198.164062 172.976562 199.558594 172.09375 200.980469 C 171.207031 202.402344 170.363281 203.847656 169.5625 205.316406 C 168.761719 206.785156 168.003906 208.277344 167.289062 209.789062 C 166.570312 211.304688 165.898438 212.835938 165.273438 214.386719 C 164.644531 215.9375 164.0625 217.507812 163.523438 219.09375 C 162.984375 220.675781 162.492188 222.277344 162.046875 223.890625 C 161.597656 225.503906 161.199219 227.128906 160.84375 228.765625 C 160.492188 230.398438 160.183594 232.046875 159.925781 233.699219 C 159.667969 235.351562 159.453125 237.011719 159.289062 238.679688 C 159.125 240.34375 159.007812 242.015625 158.941406 243.6875 C 158.871094 245.359375 158.851562 247.03125 158.878906 248.707031 C 158.90625 250.378906 158.980469 252.050781 159.105469 253.71875 C 159.226562 255.390625 159.398438 257.054688 159.617188 258.714844 C 159.835938 260.375 160.101562 262.027344 160.414062 263.671875 C 160.726562 265.316406 161.085938 266.949219 161.492188 268.574219 C 161.898438 270.195312 162.351562 271.808594 162.851562 273.40625 C 163.351562 275.003906 163.894531 276.585938 164.484375 278.152344 C 165.074219 279.71875 165.707031 281.269531 166.386719 282.796875 C 167.0625 284.328125 167.785156 285.839844 168.550781 287.328125 C 169.3125 288.816406 170.121094 290.28125 170.96875 291.726562 C 171.816406 293.167969 172.707031 294.585938 173.636719 295.976562 C 174.566406 297.371094 175.535156 298.734375 176.542969 300.070312 C 177.550781 301.40625 178.597656 302.710938 179.679688 303.988281 C 180.761719 305.265625 181.882812 306.511719 183.035156 307.722656 C 184.191406 308.933594 185.378906 310.113281 186.601562 311.257812 C 187.820312 312.402344 189.074219 313.511719 190.359375 314.582031 C 191.644531 315.65625 192.960938 316.691406 194.304688 317.6875 C 195.648438 318.6875 197.019531 319.644531 198.421875 320.5625 C 199.820312 321.480469 201.246094 322.359375 202.695312 323.195312 C 204.144531 324.035156 205.617188 324.828125 207.109375 325.582031 C 208.605469 326.332031 210.121094 327.042969 211.65625 327.707031 C 213.195312 328.375 214.746094 328.996094 216.320312 329.574219 C 217.890625 330.148438 219.476562 330.683594 221.078125 331.167969 C 222.679688 331.652344 224.292969 332.09375 225.921875 332.488281 C 227.546875 332.878906 229.1875 333.226562 230.832031 333.527344 C 232.480469 333.828125 234.132812 334.078125 235.796875 334.285156 C 237.457031 334.488281 239.121094 334.648438 240.792969 334.757812 C 242.464844 334.867188 244.136719 334.925781 245.808594 334.941406 C 247.484375 334.957031 249.15625 334.921875 250.828125 334.839844 C 252.5 334.757812 254.167969 334.628906 255.832031 334.449219 C 257.496094 334.273438 259.15625 334.046875 260.808594 333.773438 C 262.457031 333.5 264.101562 333.183594 265.734375 332.816406 C 267.367188 332.449219 268.988281 332.035156 270.597656 331.574219 C 272.207031 331.117188 273.804688 330.609375 275.382812 330.058594 C 276.964844 329.507812 278.527344 328.914062 280.074219 328.273438 C 281.621094 327.632812 283.148438 326.949219 284.65625 326.21875 C 286.164062 325.492188 287.648438 324.722656 289.113281 323.910156 C 290.574219 323.097656 292.015625 322.242188 293.429688 321.347656 C 294.84375 320.449219 296.230469 319.515625 297.589844 318.539062 C 298.953125 317.566406 300.285156 316.550781 301.585938 315.5 C 302.890625 314.449219 304.160156 313.363281 305.402344 312.238281 C 306.640625 311.113281 307.847656 309.957031 309.023438 308.761719 C 310.195312 307.570312 311.335938 306.34375 312.4375 305.085938 C 313.542969 303.824219 314.609375 302.535156 315.640625 301.21875 C 316.667969 299.898438 317.660156 298.550781 318.613281 297.171875 C 319.566406 295.796875 320.480469 294.394531 321.351562 292.964844 C 322.222656 291.535156 323.054688 290.085938 323.84375 288.609375 C 324.632812 287.132812 325.378906 285.632812 326.082031 284.113281 C 326.785156 282.597656 327.445312 281.058594 328.058594 279.5 C 328.675781 277.945312 329.246094 276.371094 329.769531 274.78125 C 330.296875 273.191406 330.773438 271.589844 331.207031 269.972656 C 331.640625 268.355469 332.027344 266.726562 332.367188 265.089844 C 332.707031 263.449219 333 261.800781 333.246094 260.144531 C 333.492188 258.488281 333.691406 256.828125 333.839844 255.160156 C 333.992188 253.496094 334.09375 251.824219 334.148438 250.152344 C 334.203125 248.476562 334.210938 246.804688 334.171875 245.132812 C 334.128906 243.457031 334.039062 241.785156 333.902344 240.117188 C 333.765625 238.449219 333.582031 236.785156 333.351562 235.128906 C 333.117188 233.472656 332.839844 231.820312 332.511719 230.179688 C 332.1875 228.539062 331.8125 226.90625 331.394531 225.285156 C 330.972656 223.667969 330.507812 222.058594 329.996094 220.464844 C 329.484375 218.871094 328.925781 217.292969 328.324219 215.730469 C 327.722656 214.171875 327.074219 212.625 326.382812 211.101562 C 325.691406 209.578125 324.957031 208.074219 324.183594 206.589844 C 323.40625 205.109375 322.585938 203.648438 321.726562 202.210938 C 320.863281 200.777344 319.964844 199.367188 319.023438 197.984375 C 318.082031 196.597656 317.101562 195.242188 316.082031 193.914062 C 315.0625 192.585938 314.007812 191.289062 312.914062 190.019531 C 311.820312 188.753906 310.691406 187.519531 309.527344 186.316406 C 308.363281 185.113281 307.164062 183.945312 305.933594 182.808594 C 304.703125 181.675781 303.441406 180.578125 302.148438 179.515625 C 300.851562 178.453125 299.53125 177.429688 298.175781 176.441406 C 296.824219 175.457031 295.445312 174.511719 294.039062 173.601562 C 292.632812 172.695312 291.199219 171.828125 289.742188 171.003906 C 288.285156 170.179688 286.808594 169.398438 285.304688 168.65625 C 283.804688 167.914062 282.285156 167.21875 280.742188 166.566406 C 279.199219 165.914062 277.640625 165.304688 276.066406 164.738281 C 274.488281 164.175781 272.898438 163.65625 271.292969 163.183594 C 269.6875 162.710938 268.070312 162.285156 266.4375 161.90625 C 264.808594 161.523438 263.167969 161.191406 261.519531 160.90625 C 259.871094 160.621094 258.214844 160.382812 256.550781 160.191406 C 254.886719 160 253.222656 159.855469 251.550781 159.757812 C 249.878906 159.664062 248.207031 159.613281 246.53125 159.613281 C 243.660156 159.605469 240.796875 159.742188 237.9375 160.015625 C 235.078125 160.292969 232.242188 160.707031 229.421875 161.265625 C 226.605469 161.820312 223.820312 162.515625 221.074219 163.34375 C 218.324219 164.175781 215.625 165.140625 212.96875 166.242188 C 210.316406 167.339844 207.722656 168.566406 205.191406 169.921875 C 202.660156 171.277344 200.203125 172.753906 197.816406 174.355469 C 195.429688 175.953125 193.128906 177.664062 190.914062 179.492188 C 188.695312 181.316406 186.574219 183.25 184.550781 185.285156 Z M 289.925781 203.847656 C 289.605469 203.539062 289.320312 203.203125 289.070312 202.839844 C 288.816406 202.476562 288.605469 202.089844 288.429688 201.683594 C 288.253906 201.273438 288.121094 200.855469 288.03125 200.421875 C 287.9375 199.988281 287.890625 199.550781 287.886719 199.105469 C 287.882812 198.664062 287.925781 198.222656 288.007812 197.789062 C 288.089844 197.355469 288.214844 196.933594 288.382812 196.523438 C 288.550781 196.113281 288.757812 195.722656 289.003906 195.355469 C 289.25 194.984375 289.527344 194.644531 289.84375 194.332031 C 290.15625 194.015625 290.496094 193.738281 290.863281 193.492188 C 291.234375 193.246094 291.625 193.039062 292.035156 192.871094 C 292.445312 192.707031 292.867188 192.578125 293.300781 192.496094 C 293.734375 192.414062 294.175781 192.371094 294.617188 192.375 C 295.0625 192.378906 295.5 192.425781 295.933594 192.519531 C 296.367188 192.609375 296.785156 192.742188 297.195312 192.917969 C 297.601562 193.09375 297.988281 193.304688 298.351562 193.558594 C 298.714844 193.808594 299.050781 194.09375 299.359375 194.414062 C 300.222656 195.277344 301.066406 196.164062 301.890625 197.066406 C 302.710938 197.972656 303.507812 198.898438 304.285156 199.84375 C 305.0625 200.789062 305.8125 201.753906 306.542969 202.734375 C 307.269531 203.71875 307.976562 204.714844 308.65625 205.734375 C 309.332031 206.75 309.988281 207.78125 310.617188 208.832031 C 311.246094 209.878906 311.847656 210.945312 312.425781 212.023438 C 313 213.101562 313.550781 214.191406 314.074219 215.296875 C 314.597656 216.402344 315.09375 217.519531 315.5625 218.648438 C 316.03125 219.78125 316.46875 220.921875 316.882812 222.070312 C 317.292969 223.222656 317.675781 224.382812 318.03125 225.554688 C 318.386719 226.722656 318.714844 227.902344 319.011719 229.089844 C 319.308594 230.273438 319.574219 231.46875 319.816406 232.667969 C 320.054688 233.867188 320.261719 235.070312 320.441406 236.28125 C 320.621094 237.488281 320.769531 238.703125 320.890625 239.917969 C 321.011719 241.136719 321.101562 242.355469 321.160156 243.578125 C 321.222656 244.796875 321.25 246.019531 321.25 247.242188 C 321.25 248.464844 321.222656 249.6875 321.160156 250.910156 C 321.101562 252.128906 321.011719 253.351562 320.890625 254.566406 C 320.769531 255.785156 320.621094 256.996094 320.441406 258.207031 C 320.261719 259.417969 320.054688 260.621094 319.816406 261.820312 C 319.574219 263.019531 319.308594 264.210938 319.011719 265.398438 C 318.714844 266.585938 318.386719 267.761719 318.03125 268.933594 C 317.675781 270.101562 317.292969 271.261719 316.882812 272.414062 C 316.46875 273.566406 316.03125 274.707031 315.5625 275.835938 C 315.09375 276.964844 314.597656 278.082031 314.074219 279.1875 C 313.550781 280.292969 313 281.386719 312.425781 282.464844 C 311.847656 283.542969 311.246094 284.605469 310.617188 285.65625 C 309.988281 286.703125 309.332031 287.738281 308.65625 288.753906 C 307.976562 289.769531 307.269531 290.769531 306.542969 291.75 C 305.8125 292.734375 305.0625 293.695312 304.285156 294.640625 C 303.507812 295.585938 302.710938 296.511719 301.890625 297.417969 C 301.066406 298.324219 300.222656 299.207031 299.359375 300.074219 C 299.054688 300.410156 298.722656 300.710938 298.359375 300.976562 C 297.992188 301.246094 297.605469 301.472656 297.195312 301.660156 C 296.785156 301.851562 296.359375 301.996094 295.917969 302.097656 C 295.480469 302.199219 295.03125 302.257812 294.582031 302.269531 C 294.128906 302.28125 293.679688 302.246094 293.234375 302.167969 C 292.792969 302.085938 292.359375 301.964844 291.9375 301.796875 C 291.519531 301.628906 291.121094 301.421875 290.742188 301.171875 C 290.367188 300.925781 290.015625 300.640625 289.695312 300.320312 C 289.375 300.003906 289.09375 299.652344 288.84375 299.277344 C 288.59375 298.898438 288.386719 298.5 288.21875 298.082031 C 288.046875 297.664062 287.925781 297.230469 287.84375 296.785156 C 287.761719 296.339844 287.730469 295.894531 287.738281 295.441406 C 287.75 294.988281 287.804688 294.542969 287.90625 294.101562 C 288.007812 293.664062 288.152344 293.238281 288.339844 292.824219 C 288.527344 292.414062 288.757812 292.027344 289.023438 291.660156 C 289.289062 291.296875 289.589844 290.960938 289.925781 290.660156 C 291.347656 289.238281 292.695312 287.75 293.96875 286.195312 C 295.246094 284.644531 296.441406 283.03125 297.558594 281.359375 C 298.675781 279.6875 299.707031 277.964844 300.65625 276.195312 C 301.605469 274.421875 302.464844 272.605469 303.230469 270.75 C 304 268.894531 304.679688 267.003906 305.261719 265.078125 C 305.847656 263.15625 306.332031 261.207031 306.726562 259.238281 C 307.117188 257.265625 307.414062 255.277344 307.609375 253.277344 C 307.808594 251.277344 307.90625 249.273438 307.90625 247.261719 C 307.90625 245.253906 307.808594 243.246094 307.609375 241.246094 C 307.414062 239.246094 307.117188 237.261719 306.726562 235.289062 C 306.332031 233.316406 305.847656 231.371094 305.261719 229.445312 C 304.679688 227.523438 304 225.632812 303.230469 223.777344 C 302.464844 221.917969 301.605469 220.105469 300.65625 218.332031 C 299.707031 216.558594 298.675781 214.835938 297.558594 213.167969 C 296.441406 211.496094 295.246094 209.882812 293.96875 208.328125 C 292.695312 206.777344 291.347656 205.289062 289.925781 203.867188 Z M 289.925781 203.847656 "/><path style=" stroke:none;fill-rule:nonzero;fill:#000000;fill-opacity:1;" d="M 175.117188 318.683594 C 171.011719 314.585938 167.289062 310.164062 163.949219 305.421875 C 160.609375 300.679688 157.703125 295.6875 155.226562 290.441406 C 152.75 285.195312 150.742188 279.777344 149.207031 274.183594 C 147.667969 268.59375 146.625 262.910156 146.070312 257.136719 L 42.449219 257.136719 C 42.011719 257.136719 41.578125 257.09375 41.148438 257.007812 C 40.71875 256.921875 40.300781 256.792969 39.898438 256.628906 C 39.492188 256.460938 39.109375 256.253906 38.742188 256.011719 C 38.378906 255.765625 38.042969 255.492188 37.734375 255.179688 C 37.421875 254.871094 37.144531 254.535156 36.902344 254.167969 C 36.660156 253.804688 36.453125 253.421875 36.285156 253.015625 C 36.117188 252.609375 35.992188 252.195312 35.90625 251.765625 C 35.820312 251.335938 35.777344 250.902344 35.777344 250.460938 C 35.777344 250.023438 35.820312 249.589844 35.90625 249.160156 C 35.992188 248.730469 36.117188 248.3125 36.285156 247.910156 C 36.453125 247.503906 36.660156 247.121094 36.902344 246.753906 C 37.144531 246.390625 37.421875 246.054688 37.734375 245.746094 C 38.042969 245.433594 38.378906 245.15625 38.742188 244.914062 C 39.109375 244.671875 39.492188 244.464844 39.898438 244.296875 C 40.300781 244.128906 40.71875 244.003906 41.148438 243.917969 C 41.578125 243.832031 42.011719 243.789062 42.449219 243.789062 L 145.75 243.789062 C 146.003906 236.125 147.117188 228.582031 149.085938 221.167969 L 42.449219 221.167969 C 42.011719 221.167969 41.578125 221.128906 41.148438 221.042969 C 40.71875 220.957031 40.300781 220.828125 39.898438 220.660156 C 39.492188 220.496094 39.109375 220.289062 38.742188 220.046875 C 38.378906 219.800781 38.042969 219.523438 37.734375 219.214844 C 37.421875 218.90625 37.144531 218.570312 36.902344 218.203125 C 36.660156 217.839844 36.453125 217.457031 36.285156 217.050781 C 36.117188 216.644531 35.992188 216.230469 35.90625 215.800781 C 35.820312 215.371094 35.777344 214.933594 35.777344 214.496094 C 35.777344 214.058594 35.820312 213.625 35.90625 213.195312 C 35.992188 212.765625 36.117188 212.347656 36.285156 211.945312 C 36.453125 211.539062 36.660156 211.15625 36.902344 210.789062 C 37.144531 210.425781 37.421875 210.089844 37.734375 209.777344 C 38.042969 209.46875 38.378906 209.191406 38.742188 208.949219 C 39.109375 208.707031 39.492188 208.5 39.898438 208.332031 C 40.300781 208.164062 40.71875 208.039062 41.148438 207.953125 C 41.578125 207.867188 42.011719 207.824219 42.449219 207.824219 L 153.625 207.824219 C 157.074219 199.695312 161.523438 192.152344 166.96875 185.199219 L 42.449219 185.199219 C 42.011719 185.199219 41.578125 185.15625 41.148438 185.070312 C 40.71875 184.984375 40.300781 184.859375 39.898438 184.691406 C 39.492188 184.523438 39.109375 184.316406 38.742188 184.074219 C 38.378906 183.828125 38.042969 183.554688 37.734375 183.242188 C 37.421875 182.933594 37.144531 182.597656 36.902344 182.230469 C 36.660156 181.867188 36.453125 181.484375 36.285156 181.078125 C 36.117188 180.675781 35.992188 180.257812 35.90625 179.828125 C 35.820312 179.398438 35.777344 178.964844 35.777344 178.523438 C 35.777344 178.085938 35.820312 177.652344 35.90625 177.222656 C 35.992188 176.792969 36.117188 176.375 36.285156 175.972656 C 36.453125 175.566406 36.660156 175.183594 36.902344 174.816406 C 37.144531 174.453125 37.421875 174.117188 37.734375 173.808594 C 38.042969 173.496094 38.378906 173.21875 38.742188 172.976562 C 39.109375 172.734375 39.492188 172.527344 39.898438 172.359375 C 40.300781 172.191406 40.71875 172.066406 41.148438 171.980469 C 41.578125 171.894531 42.011719 171.851562 42.449219 171.851562 L 179.53125 171.851562 C 182.226562 169.460938 185.039062 167.214844 187.972656 165.125 C 190.90625 163.03125 193.941406 161.101562 197.082031 159.335938 C 200.222656 157.570312 203.449219 155.976562 206.757812 154.558594 C 210.070312 153.136719 213.449219 151.898438 216.890625 150.839844 C 220.335938 149.78125 223.828125 148.910156 227.363281 148.226562 C 230.902344 147.542969 234.464844 147.050781 238.054688 146.75 C 241.644531 146.449219 245.242188 146.34375 248.84375 146.425781 C 252.445312 146.511719 256.03125 146.789062 259.605469 147.257812 L 259.605469 27.519531 L 0 27.519531 L 0 325.117188 L 182.203125 325.117188 C 179.765625 323.066406 177.390625 320.957031 175.117188 318.683594 Z M 22.625 113.101562 C 22.632812 112.664062 22.679688 112.234375 22.765625 111.808594 C 22.855469 111.382812 22.984375 110.96875 23.15625 110.570312 C 23.324219 110.167969 23.53125 109.789062 23.777344 109.429688 C 24.019531 109.070312 24.296875 108.734375 24.605469 108.429688 C 24.917969 108.125 25.253906 107.851562 25.613281 107.609375 C 25.976562 107.371094 26.359375 107.167969 26.761719 107.003906 C 27.164062 106.835938 27.578125 106.710938 28.007812 106.628906 C 28.433594 106.542969 28.863281 106.5 29.300781 106.5 L 29.359375 106.5 C 29.796875 106.503906 30.230469 106.550781 30.660156 106.640625 C 31.089844 106.730469 31.503906 106.863281 31.90625 107.035156 C 32.3125 107.207031 32.695312 107.414062 33.054688 107.664062 C 33.417969 107.910156 33.75 108.191406 34.058594 108.503906 C 34.363281 108.816406 34.636719 109.15625 34.878906 109.523438 C 35.117188 109.890625 35.320312 110.277344 35.484375 110.683594 C 35.648438 111.089844 35.769531 111.507812 35.851562 111.9375 C 35.929688 112.367188 35.96875 112.800781 35.964844 113.242188 C 35.953125 114.320312 36.148438 115.363281 36.554688 116.363281 C 36.957031 117.367188 37.542969 118.25 38.300781 119.019531 C 39.070312 119.800781 39.960938 120.402344 40.972656 120.832031 C 41.980469 121.257812 43.035156 121.472656 44.132812 121.480469 L 54.449219 121.589844 L 54.515625 121.589844 L 64.796875 121.695312 L 64.882812 121.695312 C 65.417969 121.695312 65.949219 121.648438 66.472656 121.546875 C 67 121.445312 67.507812 121.292969 68.003906 121.09375 C 68.5 120.894531 68.972656 120.644531 69.421875 120.351562 C 69.867188 120.058594 70.28125 119.726562 70.664062 119.351562 C 71.046875 118.980469 71.390625 118.570312 71.691406 118.132812 C 71.996094 117.691406 72.253906 117.226562 72.464844 116.734375 C 72.679688 116.242188 72.839844 115.738281 72.953125 115.214844 C 73.066406 114.691406 73.128906 114.164062 73.136719 113.628906 C 73.152344 112.546875 72.957031 111.503906 72.550781 110.503906 C 72.144531 109.5 71.558594 108.617188 70.796875 107.847656 C 70.027344 107.066406 69.140625 106.460938 68.128906 106.035156 C 67.121094 105.609375 66.066406 105.390625 64.972656 105.386719 L 44.285156 105.167969 C 43.582031 105.164062 42.878906 105.125 42.179688 105.050781 C 41.480469 104.980469 40.785156 104.871094 40.09375 104.730469 C 39.402344 104.589844 38.722656 104.417969 38.050781 104.207031 C 37.378906 104 36.714844 103.757812 36.066406 103.488281 C 35.417969 103.214844 34.785156 102.910156 34.164062 102.574219 C 33.546875 102.238281 32.945312 101.875 32.359375 101.480469 C 31.777344 101.085938 31.214844 100.664062 30.671875 100.214844 C 30.132812 99.765625 29.613281 99.289062 29.117188 98.789062 C 28.621094 98.289062 28.152344 97.765625 27.707031 97.21875 C 27.265625 96.671875 26.847656 96.105469 26.460938 95.519531 C 26.074219 94.929688 25.714844 94.324219 25.386719 93.703125 C 25.058594 93.078125 24.757812 92.441406 24.492188 91.789062 C 24.226562 91.136719 23.992188 90.476562 23.792969 89.800781 C 23.59375 89.125 23.425781 88.441406 23.292969 87.75 C 23.15625 87.058594 23.058594 86.363281 22.992188 85.660156 C 22.925781 84.960938 22.898438 84.257812 22.898438 83.554688 C 22.902344 82.851562 22.941406 82.148438 23.015625 81.449219 C 23.085938 80.746094 23.195312 80.050781 23.335938 79.363281 C 23.476562 78.671875 23.652344 77.992188 23.859375 77.316406 C 24.066406 76.644531 24.308594 75.984375 24.582031 75.335938 C 24.851562 74.6875 25.15625 74.050781 25.492188 73.433594 C 25.828125 72.8125 26.191406 72.210938 26.585938 71.628906 C 26.980469 71.046875 27.402344 70.484375 27.851562 69.941406 C 28.300781 69.398438 28.777344 68.878906 29.277344 68.386719 C 29.777344 67.890625 30.300781 67.421875 30.847656 66.976562 C 31.394531 66.53125 31.960938 66.117188 32.550781 65.730469 C 33.136719 65.339844 33.742188 64.980469 34.363281 64.652344 C 34.988281 64.324219 35.625 64.027344 36.277344 63.761719 C 36.929688 63.496094 37.59375 63.261719 38.265625 63.0625 C 38.941406 62.859375 39.625 62.691406 40.316406 62.558594 C 41.007812 62.425781 41.703125 62.328125 42.40625 62.261719 C 43.105469 62.195312 43.808594 62.164062 44.511719 62.167969 L 48.410156 62.167969 L 48.53125 50.570312 C 48.535156 50.136719 48.582031 49.707031 48.667969 49.28125 C 48.757812 48.851562 48.886719 48.441406 49.058594 48.039062 C 49.226562 47.636719 49.433594 47.257812 49.675781 46.898438 C 49.921875 46.535156 50.199219 46.203125 50.507812 45.894531 C 50.816406 45.589844 51.152344 45.316406 51.515625 45.078125 C 51.878906 44.835938 52.261719 44.632812 52.664062 44.46875 C 53.066406 44.300781 53.480469 44.175781 53.910156 44.09375 C 54.335938 44.007812 54.765625 43.964844 55.203125 43.964844 L 55.277344 43.964844 C 55.714844 43.96875 56.148438 44.019531 56.574219 44.109375 C 57.003906 44.199219 57.417969 44.328125 57.820312 44.5 C 58.226562 44.671875 58.605469 44.882812 58.96875 45.128906 C 59.328125 45.375 59.664062 45.65625 59.96875 45.96875 C 60.277344 46.28125 60.550781 46.621094 60.789062 46.988281 C 61.027344 47.355469 61.230469 47.742188 61.394531 48.148438 C 61.558594 48.554688 61.679688 48.972656 61.761719 49.402344 C 61.839844 49.832031 61.878906 50.265625 61.875 50.703125 L 61.753906 62.308594 L 65.410156 62.347656 C 66.117188 62.355469 66.820312 62.394531 67.523438 62.472656 C 68.222656 62.546875 68.921875 62.65625 69.609375 62.800781 C 70.300781 62.941406 70.984375 63.121094 71.65625 63.332031 C 72.332031 63.542969 72.992188 63.785156 73.640625 64.058594 C 74.292969 64.335938 74.925781 64.644531 75.546875 64.980469 C 76.164062 65.320312 76.765625 65.6875 77.347656 66.082031 C 77.933594 66.480469 78.496094 66.90625 79.035156 67.359375 C 79.578125 67.808594 80.09375 68.289062 80.589844 68.792969 C 81.085938 69.296875 81.554688 69.820312 81.996094 70.371094 C 82.4375 70.921875 82.851562 71.488281 83.238281 72.078125 C 83.628906 72.671875 83.984375 73.277344 84.3125 73.902344 C 84.636719 74.527344 84.933594 75.167969 85.199219 75.824219 C 85.460938 76.476562 85.695312 77.140625 85.890625 77.820312 C 86.089844 78.496094 86.257812 79.179688 86.386719 79.875 C 86.519531 80.566406 86.617188 81.265625 86.679688 81.96875 C 86.742188 82.671875 86.769531 83.375 86.765625 84.082031 C 86.757812 84.515625 86.710938 84.945312 86.621094 85.371094 C 86.53125 85.796875 86.402344 86.210938 86.234375 86.609375 C 86.0625 87.011719 85.855469 87.390625 85.613281 87.75 C 85.367188 88.109375 85.089844 88.441406 84.78125 88.746094 C 84.472656 89.054688 84.136719 89.328125 83.773438 89.566406 C 83.410156 89.804688 83.027344 90.007812 82.625 90.171875 C 82.222656 90.339844 81.808594 90.464844 81.382812 90.546875 C 80.957031 90.632812 80.527344 90.675781 80.089844 90.675781 L 80.070312 90.675781 C 79.632812 90.667969 79.199219 90.621094 78.769531 90.53125 C 78.34375 90.441406 77.925781 90.308594 77.523438 90.136719 C 77.121094 89.964844 76.738281 89.757812 76.375 89.507812 C 76.015625 89.261719 75.679688 88.980469 75.375 88.667969 C 75.066406 88.355469 74.796875 88.015625 74.554688 87.648438 C 74.316406 87.28125 74.113281 86.894531 73.953125 86.488281 C 73.789062 86.082031 73.667969 85.660156 73.585938 85.230469 C 73.503906 84.800781 73.46875 84.367188 73.472656 83.929688 C 73.488281 82.847656 73.292969 81.804688 72.886719 80.804688 C 72.480469 79.804688 71.894531 78.921875 71.128906 78.15625 C 70.363281 77.375 69.472656 76.769531 68.464844 76.34375 C 67.453125 75.914062 66.402344 75.699219 65.304688 75.695312 L 44.621094 75.480469 L 44.53125 75.480469 C 44 75.476562 43.46875 75.527344 42.941406 75.628906 C 42.417969 75.730469 41.90625 75.878906 41.410156 76.078125 C 40.917969 76.28125 40.445312 76.527344 39.996094 76.820312 C 39.550781 77.113281 39.136719 77.445312 38.753906 77.820312 C 38.371094 78.195312 38.027344 78.601562 37.726562 79.042969 C 37.421875 79.484375 37.164062 79.949219 36.953125 80.441406 C 36.742188 80.933594 36.582031 81.4375 36.46875 81.960938 C 36.355469 82.484375 36.292969 83.011719 36.285156 83.546875 C 36.269531 84.628906 36.464844 85.671875 36.871094 86.671875 C 37.277344 87.675781 37.859375 88.558594 38.621094 89.324219 C 39.386719 90.109375 40.277344 90.710938 41.285156 91.136719 C 42.292969 91.566406 43.34375 91.78125 44.441406 91.789062 L 65.125 92.007812 C 65.828125 92.011719 66.53125 92.050781 67.230469 92.125 C 67.933594 92.195312 68.625 92.300781 69.316406 92.445312 C 70.007812 92.585938 70.6875 92.757812 71.359375 92.96875 C 72.035156 93.175781 72.695312 93.414062 73.34375 93.6875 C 73.992188 93.960938 74.625 94.265625 75.246094 94.601562 C 75.863281 94.9375 76.464844 95.300781 77.050781 95.695312 C 77.632812 96.089844 78.195312 96.511719 78.738281 96.960938 C 79.28125 97.410156 79.796875 97.886719 80.292969 98.386719 C 80.789062 98.886719 81.257812 99.410156 81.703125 99.957031 C 82.144531 100.503906 82.5625 101.070312 82.949219 101.65625 C 83.339844 102.246094 83.695312 102.851562 84.023438 103.472656 C 84.355469 104.097656 84.652344 104.734375 84.917969 105.386719 C 85.183594 106.035156 85.417969 106.699219 85.617188 107.375 C 85.816406 108.050781 85.984375 108.734375 86.121094 109.425781 C 86.253906 110.117188 86.351562 110.8125 86.417969 111.511719 C 86.484375 112.214844 86.515625 112.917969 86.511719 113.621094 C 86.507812 114.324219 86.46875 115.027344 86.394531 115.726562 C 86.324219 116.429688 86.214844 117.125 86.074219 117.8125 C 85.933594 118.503906 85.757812 119.183594 85.550781 119.855469 C 85.34375 120.53125 85.101562 121.191406 84.832031 121.839844 C 84.558594 122.488281 84.253906 123.121094 83.917969 123.742188 C 83.582031 124.363281 83.21875 124.960938 82.824219 125.546875 C 82.429688 126.128906 82.007812 126.691406 81.558594 127.234375 C 81.109375 127.777344 80.632812 128.292969 80.132812 128.789062 C 79.632812 129.285156 79.109375 129.753906 78.5625 130.199219 C 78.015625 130.640625 77.449219 131.058594 76.859375 131.445312 C 76.273438 131.835938 75.667969 132.191406 75.046875 132.523438 C 74.421875 132.851562 73.785156 133.148438 73.132812 133.414062 C 72.480469 133.679688 71.816406 133.914062 71.144531 134.113281 C 70.46875 134.316406 69.785156 134.480469 69.09375 134.617188 C 68.402344 134.75 67.707031 134.847656 67.003906 134.914062 C 66.304688 134.980469 65.601562 135.011719 64.898438 135.007812 L 64.65625 135.007812 L 61.019531 134.964844 L 60.894531 146.535156 C 60.890625 146.972656 60.84375 147.402344 60.753906 147.828125 C 60.664062 148.253906 60.535156 148.667969 60.367188 149.066406 C 60.195312 149.46875 59.988281 149.847656 59.746094 150.207031 C 59.5 150.570312 59.222656 150.902344 58.914062 151.207031 C 58.605469 151.515625 58.269531 151.785156 57.90625 152.027344 C 57.542969 152.265625 57.160156 152.46875 56.757812 152.636719 C 56.355469 152.800781 55.941406 152.925781 55.515625 153.007812 C 55.085938 153.09375 54.65625 153.136719 54.222656 153.136719 L 54.148438 153.136719 C 53.710938 153.132812 53.277344 153.082031 52.847656 152.992188 C 52.421875 152.902344 52.003906 152.773438 51.601562 152.601562 C 51.199219 152.429688 50.816406 152.21875 50.457031 151.972656 C 50.09375 151.726562 49.761719 151.445312 49.453125 151.132812 C 49.148438 150.820312 48.875 150.480469 48.636719 150.113281 C 48.394531 149.746094 48.195312 149.359375 48.03125 148.953125 C 47.867188 148.546875 47.746094 148.128906 47.664062 147.699219 C 47.582031 147.269531 47.542969 146.835938 47.550781 146.398438 L 47.675781 134.832031 L 44 134.792969 C 43.292969 134.785156 42.589844 134.746094 41.890625 134.671875 C 41.1875 134.597656 40.492188 134.488281 39.800781 134.34375 C 39.109375 134.199219 38.429688 134.023438 37.753906 133.8125 C 37.082031 133.601562 36.421875 133.359375 35.769531 133.082031 C 35.121094 132.808594 34.488281 132.5 33.867188 132.160156 C 33.25 131.824219 32.648438 131.457031 32.0625 131.058594 C 31.480469 130.664062 30.917969 130.238281 30.378906 129.785156 C 29.835938 129.332031 29.316406 128.855469 28.824219 128.351562 C 28.328125 127.847656 27.859375 127.324219 27.417969 126.773438 C 26.972656 126.226562 26.558594 125.65625 26.171875 125.066406 C 25.785156 124.476562 25.429688 123.867188 25.101562 123.242188 C 24.773438 122.617188 24.480469 121.976562 24.214844 121.324219 C 23.949219 120.671875 23.71875 120.003906 23.519531 119.328125 C 23.320312 118.652344 23.15625 117.964844 23.023438 117.273438 C 22.890625 116.578125 22.796875 115.882812 22.730469 115.179688 C 22.667969 114.476562 22.640625 113.773438 22.648438 113.066406 Z M 22.625 113.101562 "/><path style=" stroke:none;fill-rule:nonzero;fill:#000000;fill-opacity:1;" d="M 330.507812 303.355469 C 326.828125 308.882812 322.640625 313.988281 317.949219 318.683594 C 313.257812 323.375 308.148438 327.5625 302.621094 331.242188 L 339.957031 368.566406 C 340.871094 369.492188 341.867188 370.3125 342.945312 371.039062 C 344.023438 371.765625 345.164062 372.378906 346.363281 372.878906 C 347.5625 373.378906 348.800781 373.753906 350.074219 374.011719 C 351.347656 374.265625 352.636719 374.394531 353.933594 374.394531 L 353.976562 374.394531 C 354.945312 374.390625 355.910156 374.320312 356.871094 374.175781 C 357.832031 374.03125 358.773438 373.816406 359.703125 373.535156 C 360.628906 373.25 361.535156 372.902344 362.410156 372.484375 C 363.285156 372.066406 364.128906 371.589844 364.933594 371.046875 C 365.738281 370.507812 366.5 369.910156 367.21875 369.257812 C 367.9375 368.605469 368.601562 367.902344 369.21875 367.152344 C 369.832031 366.398438 370.386719 365.605469 370.882812 364.773438 C 371.382812 363.9375 371.8125 363.074219 372.183594 362.175781 C 372.550781 361.277344 372.855469 360.359375 373.085938 359.417969 C 373.320312 358.472656 373.484375 357.519531 373.574219 356.554688 C 373.667969 355.585938 373.691406 354.621094 373.640625 353.652344 C 373.589844 352.679688 373.46875 351.722656 373.273438 350.769531 C 373.082031 349.820312 372.820312 348.886719 372.492188 347.972656 C 372.160156 347.0625 371.765625 346.175781 371.304688 345.324219 C 370.847656 344.46875 370.324219 343.652344 369.746094 342.875 C 369.164062 342.097656 368.527344 341.367188 367.839844 340.683594 Z M 330.507812 303.355469 "/></g></svg>