<svg xmlns="http://www.w3.org/2000/svg" xmlns:xlink="http://www.w3.org/1999/xlink" width="500" zoomAndPan="magnify" viewBox="0 0 375 374.999991" height="500" preserveAspectRatio="xMidYMid meet" version="1.2"><g id="8e7fc1f25b"><path style=" stroke:none;fill-rule:nonzero;fill:#000000;fill-opacity:1;" d="M 321.789062 108.828125 L 374.945312 55.675781 L 324.859375 50.171875 L 319.359375 0.0898438 L 266.203125 53.242188 L 269.910156 86.992188 L 261.28125 95.617188 C 233.578125 71.761719 197.738281 57.128906 158.390625 57.128906 C 71.03125 57.128906 -0.03125 128.199219 -0.03125 215.550781 C -0.03125 302.90625 71.03125 373.972656 158.390625 373.972656 C 245.746094 373.972656 316.808594 302.90625 316.808594 215.550781 C 316.808594 184.316406 307.601562 155.246094 291.933594 130.679688 L 263.960938 158.652344 C 273.128906 175.59375 278.347656 194.972656 278.347656 215.550781 C 278.347656 281.695312 224.535156 335.511719 158.390625 335.511719 C 92.242188 335.511719 38.429688 281.695312 38.429688 215.550781 C 38.429688 149.40625 92.242188 95.59375 158.390625 95.59375 C 187.128906 95.59375 213.398438 105.90625 234.058594 122.839844 L 214.300781 142.59375 C 198.789062 130.675781 179.421875 123.546875 158.390625 123.546875 C 107.65625 123.546875 66.375 164.816406 66.375 215.550781 C 66.375 266.285156 107.65625 307.558594 158.390625 307.558594 C 209.121094 307.558594 250.390625 266.285156 250.390625 215.550781 C 250.390625 202.785156 247.765625 190.628906 243.050781 179.566406 L 211.480469 211.132812 C 211.605469 212.617188 211.925781 214.039062 211.925781 215.550781 C 211.925781 245.078125 187.910156 269.097656 158.390625 269.097656 C 128.867188 269.097656 104.839844 245.078125 104.839844 215.550781 C 104.839844 186.027344 128.867188 162.007812 158.390625 162.007812 C 168.792969 162.007812 178.433594 165.085938 186.632812 170.265625 L 166.613281 190.28125 C 164.007812 189.433594 161.277344 188.855469 158.390625 188.855469 C 143.644531 188.855469 131.691406 200.808594 131.691406 215.550781 C 131.691406 230.292969 143.644531 242.246094 158.390625 242.246094 C 173.128906 242.246094 185.082031 230.292969 185.082031 215.550781 C 185.082031 213.269531 184.710938 211.097656 184.171875 208.984375 L 288.039062 105.121094 L 321.789062 108.828125 "/></g></svg>