<svg xmlns="http://www.w3.org/2000/svg" xmlns:xlink="http://www.w3.org/1999/xlink" width="500" zoomAndPan="magnify" viewBox="0 0 375 374.999991" height="500" preserveAspectRatio="xMidYMid meet" version="1.2"><defs><clipPath id="9ae3a72b83"><path d="M 3 0 L 375 0 L 375 372.75 L 3 372.75 Z M 3 0 "/></clipPath></defs><g id="18841449f2"><g clip-rule="nonzero" clip-path="url(#9ae3a72b83)"><path style=" stroke:none;fill-rule:nonzero;fill:#000000;fill-opacity:1;" d="M 164.207031 0.683594 C 161.105469 0.683594 158.007812 2.75 158.007812 6.886719 L 158.007812 19.292969 C 158.007812 27.5625 170.410156 27.5625 170.410156 19.292969 L 170.410156 6.886719 C 170.410156 2.75 167.308594 0.683594 164.207031 0.683594 Z M 86.839844 35.113281 C 82.179688 35.386719 78.347656 41.421875 82.734375 45.808594 L 91.5 54.582031 C 97.351562 60.429688 106.117188 51.660156 100.269531 45.808594 L 91.5 37.039062 C 90.039062 35.578125 88.390625 35.019531 86.839844 35.113281 Z M 241.585938 35.113281 C 240.035156 35.019531 238.386719 35.578125 236.925781 37.039062 L 228.15625 45.808594 C 222.308594 51.660156 231.078125 60.429688 236.925781 54.582031 L 245.695312 45.808594 C 250.078125 41.421875 246.246094 35.386719 241.585938 35.113281 Z M 164.207031 50.316406 C 130.445312 50.316406 108.410156 78.449219 108.410156 105.863281 C 108.410156 124.738281 116.15625 134.492188 125.207031 143.585938 C 129.734375 148.132812 134.640625 152.609375 138.664062 158.425781 C 141.71875 162.847656 144.152344 168.132812 145.132812 174.359375 L 158.007812 174.359375 L 158.007812 151.738281 L 141.351562 135.445312 C 137.289062 131.609375 139.964844 124.777344 145.554688 124.738281 C 147.238281 124.714844 148.863281 125.371094 150.046875 126.566406 L 164.183594 140.390625 L 178.328125 126.566406 C 179.515625 125.371094 181.140625 124.714844 182.824219 124.738281 C 188.414062 124.785156 191.101562 131.609375 187.039062 135.445312 L 170.410156 151.691406 L 170.410156 174.359375 L 183.292969 174.359375 C 184.273438 168.132812 186.597656 163.003906 189.761719 158.425781 C 193.785156 152.609375 198.691406 148.132812 203.21875 143.585938 C 212.269531 134.492188 220.015625 125.273438 220.015625 105.863281 C 220.015625 78.449219 197.96875 50.316406 164.207031 50.316406 Z M 164.207031 62.710938 C 172.660156 62.523438 172.660156 75.304688 164.207031 75.117188 C 155.328125 75.117188 146.890625 78.914062 141 85.558594 C 135.574219 92.300781 125.695312 83.578125 131.710938 77.355469 C 139.949219 68.058594 151.785156 62.710938 164.207031 62.710938 Z M 126.988281 99.730469 C 130.414062 99.730469 133.191406 102.507812 133.191406 105.933594 C 133.191406 109.359375 130.414062 112.136719 126.988281 112.136719 C 123.5625 112.136719 120.789062 109.359375 120.789062 105.933594 C 120.789062 102.507812 123.5625 99.730469 126.988281 99.730469 Z M 64.988281 112.332031 C 56.71875 112.332031 56.71875 124.738281 64.988281 124.738281 L 77.390625 124.738281 C 85.664062 124.738281 85.664062 112.332031 77.390625 112.332031 Z M 251.035156 112.332031 C 242.765625 112.332031 242.765625 124.738281 251.035156 124.738281 L 263.4375 124.738281 C 271.707031 124.738281 271.707031 112.332031 263.4375 112.332031 Z M 319.308594 118.460938 C 315.878906 118.449219 313.089844 121.230469 313.082031 124.675781 L 313.082031 366.628906 C 313.089844 370.074219 315.878906 372.855469 319.308594 372.84375 L 368.867188 372.84375 C 372.296875 372.855469 375.085938 370.074219 375.09375 366.628906 L 375.09375 124.675781 C 375.085938 121.230469 372.296875 118.449219 368.867188 118.460938 Z M 103.769531 136.742188 C 103.417969 137.078125 103.136719 137.375 102.789062 137.722656 C 68.816406 171.703125 69.011719 226.753906 102.765625 260.589844 C 136.519531 294.421875 191.675781 294.570312 225.648438 260.589844 C 259.621094 226.609375 259.464844 171.628906 225.613281 137.722656 C 225.269531 137.378906 224.957031 137.113281 224.605469 136.777344 C 222.359375 140.585938 219.816406 143.933594 217.195312 146.894531 C 246.003906 176.09375 245.777344 222.902344 216.867188 251.820312 C 187.84375 280.847656 140.761719 280.914062 111.535156 251.820312 C 82.550781 222.964844 82.519531 175.890625 111.21875 146.832031 C 108.597656 143.871094 106.019531 140.554688 103.769531 136.742188 Z M 119.855469 155.808594 C 96.085938 180.136719 96.382812 219.027344 120.304688 243.046875 C 144.394531 267.238281 183.804688 267.335938 208.085938 243.046875 C 232.195312 218.933594 232.242188 180.078125 208.546875 155.824219 C 205.222656 159.152344 202.152344 162.304688 199.960938 165.476562 C 198.039062 168.257812 196.667969 171.007812 195.914062 174.40625 C 203.371094 175.183594 203.207031 186.761719 195.210938 186.761719 L 195.210938 205.371094 C 195.210938 213.433594 190.054688 220.296875 182.785156 222.851562 L 182.785156 230.195312 C 182.785156 240.394531 174.574219 248.789062 164.21875 248.789062 C 153.894531 248.789062 145.660156 240.390625 145.652344 230.195312 C 145.652344 226.085938 145.652344 224.496094 145.652344 222.851562 C 138.386719 220.300781 133.207031 213.433594 133.203125 205.371094 C 133.203125 199.765625 133.203125 193.121094 133.203125 186.761719 C 125.207031 186.761719 124.875 175.230469 132.546875 174.429688 C 131.792969 171.03125 130.375 168.257812 128.453125 165.476562 C 126.257812 162.300781 123.183594 159.144531 119.855469 155.808594 Z M 145.605469 186.761719 C 145.605469 193.023438 145.605469 199.136719 145.605469 205.371094 C 145.605469 208.726562 148.238281 211.550781 151.78125 211.550781 L 176.632812 211.550781 C 180.03125 211.550781 182.808594 208.914062 182.808594 205.371094 L 182.808594 186.761719 Z M 263.242188 192.964844 C 263.382812 195.03125 263.460938 197.097656 263.472656 199.167969 C 263.460938 229.289062 249.773438 257.777344 226.265625 276.605469 L 226.265625 366.628906 C 226.273438 370.074219 229.0625 372.855469 232.492188 372.84375 L 282.050781 372.84375 C 285.480469 372.855469 288.269531 370.074219 288.277344 366.628906 L 288.277344 199.179688 C 288.269531 195.734375 285.480469 192.953125 282.050781 192.964844 Z M 158.054688 223.96875 C 158.054688 225.117188 158.054688 226.320312 158.054688 230.195312 C 158.058594 233.550781 160.6875 236.371094 164.21875 236.371094 C 167.605469 236.371094 170.382812 233.738281 170.382812 230.195312 L 170.382812 223.96875 Z M 86.71875 261.0625 L 9.3125 322.96875 C 0.449219 330.144531 1.238281 344.851562 9.90625 353.519531 C 18.558594 362.175781 33.203125 362.917969 40.390625 354.101562 L 102.378906 276.628906 C 96.59375 272.039062 91.34375 266.816406 86.71875 261.0625 Z M 201.460938 291.105469 C 189.644531 295.910156 177.011719 298.390625 164.253906 298.410156 C 155.882812 298.367188 147.546875 297.265625 139.453125 295.128906 L 139.453125 366.628906 C 139.457031 370.074219 142.246094 372.855469 145.675781 372.84375 L 195.238281 372.84375 C 198.667969 372.855469 201.457031 370.074219 201.460938 366.628906 Z M 201.460938 291.105469 "/></g></g></svg>