<svg xmlns="http://www.w3.org/2000/svg" xmlns:xlink="http://www.w3.org/1999/xlink" width="500" zoomAndPan="magnify" viewBox="0 0 375 374.999991" height="500" preserveAspectRatio="xMidYMid meet" version="1.2"><defs><clipPath id="4851f7cf4f"><path d="M 21.09375 137 L 259 137 L 259 375 L 21.09375 375 Z M 21.09375 137 "/></clipPath></defs><g id="ff33194db0"><g clip-rule="nonzero" clip-path="url(#4851f7cf4f)"><path style=" stroke:none;fill-rule:nonzero;fill:#000000;fill-opacity:1;" d="M 220.9375 207.28125 L 234.128906 182.011719 L 213.847656 161.742188 L 188.492188 174.960938 C 180.609375 170.238281 171.980469 166.628906 162.824219 164.351562 L 154.246094 137.070312 L 125.5625 137.070312 L 116.984375 164.351562 C 107.832031 166.628906 99.199219 170.242188 91.320312 174.960938 L 65.960938 161.742188 L 45.683594 182.011719 L 58.875 207.277344 C 54.089844 215.1875 50.4375 223.851562 48.132812 233.054688 L 20.992188 241.574219 L 20.992188 270.238281 L 48.023438 278.730469 C 50.304688 288.019531 53.957031 296.769531 58.757812 304.753906 L 45.679688 329.804688 L 65.960938 350.074219 L 90.953125 337.042969 C 98.972656 341.894531 107.769531 345.585938 117.113281 347.894531 L 125.558594 374.75 L 154.238281 374.75 L 162.683594 347.894531 C 172.027344 345.585938 180.820312 341.894531 188.839844 337.042969 L 213.835938 350.074219 L 234.121094 329.804688 L 221.039062 304.753906 C 225.839844 296.769531 229.492188 288.019531 231.769531 278.730469 L 258.800781 270.238281 L 258.800781 241.574219 L 231.667969 233.054688 C 229.375 223.855469 225.722656 215.191406 220.9375 207.28125 Z M 139.90625 318.816406 C 105.253906 318.816406 77.167969 290.742188 77.167969 256.109375 C 77.167969 221.476562 105.253906 193.402344 139.90625 193.402344 C 174.558594 193.402344 202.648438 221.476562 202.648438 256.109375 C 202.648438 290.742188 174.558594 318.816406 139.90625 318.816406 Z M 139.90625 318.816406 "/></g><path style=" stroke:none;fill-rule:nonzero;fill:#000000;fill-opacity:1;" d="M 135.160156 96.648438 L 122.925781 110.570312 L 132.683594 126.632812 L 150.640625 122.21875 C 154.984375 126.554688 160.015625 130.277344 165.609375 133.199219 L 166.804688 151.613281 L 185.070312 156.074219 L 194.632812 140.285156 C 200.941406 140.265625 207.117188 139.28125 212.980469 137.441406 L 226.867188 149.628906 L 242.945312 139.875 L 238.515625 121.886719 C 242.8125 117.550781 246.5 112.546875 249.398438 106.984375 L 267.941406 105.78125 L 272.402344 87.527344 L 256.449219 77.878906 C 256.410156 71.65625 255.4375 65.570312 253.617188 59.792969 L 265.957031 45.75 L 256.195312 29.683594 L 237.988281 34.160156 C 233.703125 29.929688 228.769531 26.285156 223.292969 23.414062 L 222.078125 4.699219 L 203.808594 0.242188 L 194.097656 16.285156 C 187.910156 16.3125 181.855469 17.265625 176.101562 19.050781 L 162.011719 6.683594 L 145.933594 16.441406 L 150.40625 34.585938 C 146.128906 38.875 142.457031 43.824219 139.554688 49.328125 L 120.945312 50.535156 L 116.484375 68.792969 L 132.378906 78.40625 C 132.382812 84.679688 133.34375 90.816406 135.160156 96.648438 Z M 154.449219 68.53125 C 159.84375 46.480469 182.101562 32.96875 204.171875 38.355469 C 226.238281 43.746094 239.753906 65.992188 234.363281 88.046875 C 228.972656 110.101562 206.714844 123.613281 184.644531 118.222656 C 162.578125 112.835938 149.054688 90.589844 154.449219 68.53125 Z M 154.449219 68.53125 "/><path style=" stroke:none;fill-rule:nonzero;fill:#000000;fill-opacity:1;" d="M 340.363281 163.707031 C 339.855469 158.941406 338.65625 154.214844 336.730469 149.6875 L 345.414062 137.550781 L 336.410156 125.609375 L 322.34375 130.601562 C 318.523438 127.5 314.308594 125.039062 309.867188 123.242188 L 307.421875 108.53125 L 292.609375 106.449219 L 286.21875 119.871094 C 281.414062 120.363281 276.65625 121.558594 272.097656 123.492188 L 260.027344 114.859375 L 248.074219 123.855469 L 253.019531 137.78125 C 249.863281 141.644531 247.363281 145.910156 245.539062 150.414062 L 230.988281 152.832031 L 228.902344 167.640625 L 242.175781 173.957031 C 242.675781 178.820312 243.894531 183.640625 245.863281 188.257812 L 237.320312 200.203125 L 246.320312 212.144531 L 260.167969 207.234375 C 264.0625 210.402344 268.367188 212.90625 272.90625 214.726562 L 275.3125 229.226562 L 290.128906 231.308594 L 296.46875 218 C 301.300781 217.496094 306.097656 216.269531 310.679688 214.304688 L 322.703125 222.902344 L 334.65625 213.902344 L 329.695312 199.929688 C 332.808594 196.078125 335.273438 191.839844 337.070312 187.363281 L 351.742188 184.929688 L 353.828125 170.121094 Z M 310.976562 195.066406 C 296.535156 205.9375 276.019531 203.046875 265.140625 188.617188 C 254.261719 174.1875 257.15625 153.679688 271.59375 142.8125 C 286.035156 131.945312 306.554688 134.828125 317.429688 149.261719 C 328.300781 163.691406 325.410156 184.195312 310.976562 195.066406 Z M 310.976562 195.066406 "/></g></svg>