<svg xmlns="http://www.w3.org/2000/svg" xmlns:xlink="http://www.w3.org/1999/xlink" width="500" zoomAndPan="magnify" viewBox="0 0 375 374.999991" height="500" preserveAspectRatio="xMidYMid meet" version="1.2"><defs><clipPath id="e0472bdfcd"><path d="M 188 5.390625 L 375 5.390625 L 375 290 L 188 290 Z M 188 5.390625 "/></clipPath></defs><g id="283ed690e3"><path style=" stroke:none;fill-rule:evenodd;fill:#00bea5;fill-opacity:1;" d="M 36.390625 323.425781 C 31.476562 329.535156 24.484375 335.070312 14.464844 337.363281 C 11.253906 338.125 9.171875 341.5625 9.929688 344.808594 C 19.191406 361.605469 57.183594 369.625 86.476562 348.433594 C 72.867188 344.234375 59.828125 338.699219 47.921875 331.253906 C 43.953125 328.960938 40.171875 326.289062 36.390625 323.425781 Z M 36.390625 323.425781 "/><g clip-rule="nonzero" clip-path="url(#e0472bdfcd)"><path style=" stroke:none;fill-rule:evenodd;fill:#00bea5;fill-opacity:1;" d="M 343.523438 5.390625 L 220.101562 5.390625 C 202.902344 5.390625 188.726562 19.519531 188.726562 37.078125 L 188.726562 142.835938 C 206.683594 147.039062 224.070312 153.71875 239.570312 163.265625 C 243.730469 165.746094 247.695312 168.417969 251.476562 171.28125 L 326.703125 171.28125 C 330.859375 171.28125 334.449219 174.910156 334.449219 179.109375 C 334.449219 183.308594 330.859375 186.933594 326.703125 186.933594 L 268.488281 186.933594 C 273.023438 191.898438 277.183594 197.433594 280.585938 203.164062 L 326.703125 203.164062 C 330.859375 203.164062 334.453125 206.597656 334.453125 210.988281 C 334.453125 215.1875 330.859375 218.625 326.703125 218.625 L 287.957031 218.625 C 289.089844 221.679688 290.035156 224.734375 290.792969 227.785156 C 291.359375 230.269531 291.925781 232.558594 292.304688 234.847656 L 326.703125 234.847656 C 330.859375 234.847656 334.449219 238.476562 334.449219 242.675781 C 334.449219 246.875 330.859375 250.503906 326.703125 250.503906 L 293.058594 250.503906 C 292.871094 256.039062 292.113281 261.386719 290.789062 266.730469 C 288.898438 274.746094 285.6875 282.382812 281.71875 289.253906 L 343.523438 289.253906 C 360.722656 289.253906 374.898438 275.128906 374.898438 257.757812 L 374.898438 37.078125 C 374.898438 19.519531 360.722656 5.390625 343.523438 5.390625 Z M 326.703125 155.054688 C 296.839844 155.054688 266.789062 155.054688 236.925781 155.054688 C 232.765625 155.054688 229.175781 151.617188 229.175781 147.417969 C 229.175781 143.027344 232.765625 139.59375 236.925781 139.59375 C 266.789062 139.59375 296.839844 139.59375 326.703125 139.59375 C 330.859375 139.59375 334.449219 143.027344 334.449219 147.417969 C 334.449219 151.617188 330.859375 155.054688 326.703125 155.054688 Z M 326.703125 123.367188 C 296.839844 123.367188 266.789062 123.367188 236.925781 123.367188 C 232.765625 123.367188 229.175781 119.929688 229.175781 115.539062 C 229.175781 111.339844 232.765625 107.710938 236.925781 107.710938 C 266.789062 107.710938 296.839844 107.710938 326.703125 107.710938 C 330.859375 107.710938 334.449219 111.339844 334.449219 115.539062 C 334.449219 119.929688 330.859375 123.367188 326.703125 123.367188 Z M 326.703125 91.488281 C 296.839844 91.488281 266.789062 91.488281 236.925781 91.488281 C 232.765625 91.488281 229.175781 88.050781 229.175781 83.851562 C 229.175781 79.457031 232.765625 76.023438 236.925781 76.023438 C 266.789062 76.023438 296.839844 76.023438 326.703125 76.023438 C 330.859375 76.023438 334.449219 79.457031 334.449219 83.851562 C 334.449219 88.050781 330.859375 91.488281 326.703125 91.488281 Z M 326.703125 59.796875 L 236.925781 59.796875 C 232.765625 59.796875 229.175781 56.359375 229.175781 51.96875 C 229.175781 47.769531 232.765625 44.144531 236.925781 44.144531 L 326.703125 44.144531 C 330.859375 44.144531 334.449219 47.769531 334.449219 51.96875 C 334.449219 56.359375 330.859375 59.796875 326.703125 59.796875 Z M 326.703125 59.796875 "/></g><path style=" stroke:none;fill-rule:evenodd;fill:#00bea5;fill-opacity:1;" d="M 143.746094 143.601562 C 64.363281 143.601562 0.101562 189.988281 0.101562 247.257812 C 0.101562 304.527344 64.363281 350.917969 143.746094 350.917969 C 223.125 350.917969 287.578125 304.527344 287.578125 247.257812 C 287.578125 189.988281 223.125 143.601562 143.746094 143.601562 Z M 52.269531 279.710938 C 52.269531 282.957031 49.621094 285.628906 46.40625 285.628906 C 43.007812 285.628906 40.359375 282.957031 40.359375 279.710938 C 40.359375 266.539062 40.359375 227.976562 40.359375 214.804688 C 40.359375 211.558594 43.007812 208.886719 46.40625 208.886719 C 49.621094 208.886719 52.269531 211.558594 52.269531 214.804688 C 52.269531 227.976562 52.269531 266.539062 52.269531 279.710938 Z M 74.003906 254.703125 C 74.003906 257.949219 71.355469 260.8125 67.953125 260.8125 C 64.742188 260.8125 62.09375 257.949219 62.09375 254.703125 C 62.09375 241.53125 62.09375 252.984375 62.09375 239.8125 C 62.09375 236.570312 64.742188 233.894531 67.953125 233.894531 C 71.355469 233.894531 74.003906 236.570312 74.003906 239.8125 C 74.003906 252.984375 74.003906 241.53125 74.003906 254.703125 Z M 95.550781 266.921875 C 95.550781 270.355469 92.902344 273.03125 89.691406 273.03125 C 86.289062 273.03125 83.640625 270.359375 83.640625 266.921875 C 83.640625 253.941406 83.640625 240.769531 83.640625 227.597656 C 83.640625 224.351562 86.289062 221.675781 89.691406 221.675781 C 92.902344 221.675781 95.550781 224.351562 95.550781 227.597656 C 95.550781 240.765625 95.550781 253.941406 95.550781 266.921875 Z M 117.285156 287.15625 C 117.285156 290.589844 114.636719 293.265625 111.234375 293.265625 C 108.023438 293.265625 105.375 290.589844 105.375 287.15625 C 105.375 274.175781 105.375 220.53125 105.375 207.359375 C 105.375 204.113281 108.023438 201.25 111.234375 201.25 C 114.636719 201.25 117.285156 204.113281 117.285156 207.359375 C 117.285156 220.53125 117.285156 274.175781 117.285156 287.15625 Z M 138.832031 266.921875 C 138.832031 270.355469 136.183594 273.03125 132.972656 273.03125 C 129.757812 273.03125 126.921875 270.359375 126.921875 266.921875 C 126.921875 253.941406 126.921875 240.769531 126.921875 227.597656 C 126.921875 224.351562 129.757812 221.675781 132.972656 221.675781 C 136.183594 221.675781 138.832031 224.351562 138.832031 227.597656 C 138.832031 240.765625 138.832031 253.941406 138.832031 266.921875 Z M 160.566406 255.277344 C 160.566406 258.519531 157.921875 261.195312 154.519531 261.195312 C 151.304688 261.195312 148.660156 258.519531 148.660156 255.277344 C 148.660156 242.105469 148.660156 252.414062 148.660156 239.242188 C 148.660156 235.996094 151.304688 233.324219 154.519531 233.324219 C 157.921875 233.324219 160.566406 235.996094 160.566406 239.242188 C 160.566406 252.414062 160.566406 242.105469 160.566406 255.277344 Z M 182.113281 274.367188 C 182.113281 277.613281 179.46875 280.285156 176.253906 280.285156 C 173.042969 280.285156 170.207031 277.613281 170.207031 274.367188 L 170.207031 220.339844 C 170.207031 216.90625 173.042969 214.234375 176.253906 214.234375 C 179.46875 214.234375 182.113281 216.90625 182.113281 220.339844 Z M 203.847656 285.628906 C 203.847656 288.875 201.203125 291.546875 197.800781 291.546875 C 194.585938 291.546875 191.941406 288.875 191.941406 285.628906 C 191.941406 272.457031 191.941406 222.25 191.941406 209.078125 C 191.941406 205.835938 194.585938 202.972656 197.800781 202.972656 C 201.203125 202.972656 203.847656 205.835938 203.847656 209.078125 C 203.847656 222.25 203.847656 272.457031 203.847656 285.628906 Z M 225.394531 272.265625 C 225.394531 275.511719 222.75 278.183594 219.535156 278.183594 C 216.324219 278.183594 213.675781 275.511719 213.675781 272.265625 C 213.675781 259.09375 213.675781 235.421875 213.675781 222.441406 C 213.675781 219.003906 216.324219 216.332031 219.535156 216.332031 C 222.75 216.332031 225.394531 219.003906 225.394531 222.441406 C 225.394531 235.421875 225.394531 259.09375 225.394531 272.265625 Z M 247.132812 258.710938 C 247.132812 262.148438 244.484375 264.820312 241.273438 264.820312 C 237.871094 264.820312 235.222656 262.148438 235.222656 258.710938 C 235.222656 245.730469 235.222656 248.976562 235.222656 235.804688 C 235.222656 232.558594 237.871094 229.886719 241.273438 229.886719 C 244.484375 229.886719 247.132812 232.558594 247.132812 235.804688 C 247.132812 248.976562 247.132812 245.730469 247.132812 258.710938 Z M 247.132812 258.710938 "/><path style=" stroke:none;fill-rule:evenodd;fill:#00bea5;fill-opacity:1;" d="M 139.964844 86.902344 L 139.964844 98.929688 C 139.964844 99.503906 139.964844 99.886719 140.34375 100.265625 C 141.097656 101.601562 142.800781 101.984375 143.933594 101.222656 L 180.414062 79.652344 C 180.789062 79.457031 181.167969 79.078125 181.359375 78.695312 C 182.113281 77.359375 181.734375 75.640625 180.414062 74.878906 L 144.3125 53.496094 C 143.746094 53.117188 143.179688 52.925781 142.609375 52.925781 C 141.097656 52.925781 139.964844 54.261719 139.964844 55.597656 L 139.964844 67.816406 C 65.308594 61.515625 45.085938 129.472656 41.117188 147.417969 C 59.449219 134.4375 79.671875 126.992188 108.210938 125.65625 C 117.664062 99.503906 130.894531 90.339844 139.964844 86.902344 Z M 139.964844 86.902344 "/></g></svg>